<?xml version="1.0" encoding="utf-8"?>
<!-- Generator: Adobe Illustrator 19.0.0, SVG Export Plug-In . SVG Version: 6.00 Build 0)  -->
<svg version="1.1" xmlns="http://www.w3.org/2000/svg" xmlns:xlink="http://www.w3.org/1999/xlink" x="0px" y="0px" width="1400px"
	 height="1400px" viewBox="0 0 1400 1400" enable-background="new 0 0 1400 1400" xml:space="preserve">
<g id="Background">
	<g id="XMLID_1_">
		<radialGradient id="XMLID_3_" cx="1315.3896" cy="50.6229" r="1577.2516" gradientUnits="userSpaceOnUse">
			<stop  offset="0" style="stop-color:#FAF5BE"/>
			<stop  offset="0.1411" style="stop-color:#F39F8C"/>
			<stop  offset="0.2772" style="stop-color:#E87A87"/>
			<stop  offset="0.6436" style="stop-color:#154666"/>
			<stop  offset="0.9247" style="stop-color:#04364F"/>
		</radialGradient>
		<rect id="XMLID_1062_" fill="url(#XMLID_3_)" width="1400" height="1400"/>
	</g>
</g>
<g id="Object">
	<g id="XMLID_1063_">
		<g id="XMLID_1109_">
			<linearGradient id="XMLID_4_" gradientUnits="userSpaceOnUse" x1="1158.0094" y1="512.147" x2="554.0095" y2="1178.147">
				<stop  offset="0" style="stop-color:#FAF5BE"/>
				<stop  offset="0.1411" style="stop-color:#F39F8C"/>
				<stop  offset="0.2772" style="stop-color:#E87A87"/>
				<stop  offset="0.6436" style="stop-color:#154666"/>
				<stop  offset="0.9247" style="stop-color:#04364F"/>
			</linearGradient>
			<path id="XMLID_1122_" fill="url(#XMLID_4_)" d="M1253.1,534.2c8.7-14.2,15.8-22.9,15.8-45.8c0-22.9,0-183.7,0-183.7
				s4.9,8.2,9.3,13.1c2.2-7.1,1.6-12,1.6-12s-9.3-26.2-12-39.8c-3.8,4.9-7.6,6.5-7.6,6.5s0,194.1,0,213.2
				C1260.2,504.8,1258.6,523.3,1253.1,534.2z"/>
			<linearGradient id="XMLID_5_" gradientUnits="userSpaceOnUse" x1="1110.541" y1="469.0976" x2="506.541" y2="1135.0975">
				<stop  offset="0" style="stop-color:#FAF5BE"/>
				<stop  offset="0.1411" style="stop-color:#F39F8C"/>
				<stop  offset="0.2772" style="stop-color:#E87A87"/>
				<stop  offset="0.6436" style="stop-color:#154666"/>
				<stop  offset="0.9247" style="stop-color:#04364F"/>
			</linearGradient>
			<path id="XMLID_1121_" fill="url(#XMLID_5_)" d="M1168.6,618.7c8.7-14.2,15.8-22.9,15.8-45.8c0-22.9,0-357,0-357
				s4.9,8.2,9.3,13.1c2.2-7.1,1.6-12,1.6-12s-9.3-26.2-12-39.8c-3.8,4.9-7.6,6.5-7.6,6.5s0,367.4,0,386.5
				C1175.7,589.2,1174.1,607.7,1168.6,618.7z"/>
			<linearGradient id="XMLID_6_" gradientUnits="userSpaceOnUse" x1="1043.3451" y1="408.1571" x2="439.3451" y2="1074.1571">
				<stop  offset="0" style="stop-color:#FAF5BE"/>
				<stop  offset="0.1411" style="stop-color:#F39F8C"/>
				<stop  offset="0.2772" style="stop-color:#E87A87"/>
				<stop  offset="0.6436" style="stop-color:#154666"/>
				<stop  offset="0.9247" style="stop-color:#04364F"/>
			</linearGradient>
			<path id="XMLID_1119_" fill="url(#XMLID_6_)" d="M1077,473.2c8.7-14.2,15.8-22.9,15.8-45.8s0-134.1,0-134.1s4.9,8.2,9.3,13.1
				c2.2-7.1,1.6-12,1.6-12s-9.3-26.2-12-39.8c-3.8,4.9-7.6,6.5-7.6,6.5s0,144.5,0,163.6S1082.5,462.2,1077,473.2z"/>
			<linearGradient id="XMLID_7_" gradientUnits="userSpaceOnUse" x1="1124.811" y1="482.0391" x2="520.811" y2="1148.0392">
				<stop  offset="0" style="stop-color:#FAF5BE"/>
				<stop  offset="0.1411" style="stop-color:#F39F8C"/>
				<stop  offset="0.2772" style="stop-color:#E87A87"/>
				<stop  offset="0.6436" style="stop-color:#154666"/>
				<stop  offset="0.9247" style="stop-color:#04364F"/>
			</linearGradient>
			<path id="XMLID_1118_" fill="url(#XMLID_7_)" d="M1219.3,430.8c0-36.5,0-207.9,0-207.9s3.8-1.6,7.6-6.5c2.7,13.6,12,39.8,12,39.8
				s0.5,4.9-1.6,12c-4.4-4.9-9.3-13.1-9.3-13.1s0,148.9,0,180.5c0,0,0,44.1,0,62.1c0,18-9.3,43.1-24.5,48.5
				c-15.3,5.5-75.1,22.9-77.3-52.3c-2.2-75.2,48.5-51.8,43.1-14.7c-3.6,24.7-3.9,43-60.1,45.2c0,0,7.1,21.8-9.8,41.4
				s-59.4,58.9-107.9,57.2s-50.2-60.5-27.8-110.1c1.1,11.4,1.1,11.4,1.1,11.4s-24,66.5,13.6,82.3c37.6,15.8,116.1-43.1,120.5-57.8
				c4.4-14.7-8.2-40.3-12-46.3c2.2-13.1,3.3-16.9,3.3-16.9s10.4,22.9,28.3,24c18,1.1,37.7-9.8,41.5-25.6
				c3.8-15.8-10.9-21.8-17.4-21.3c-9,0.8-9.7,17.4-9.5,23.5c0.5,16.2,8.5,47.1,27.1,52.1c10.7,2.9,38.8,0,47.5-6.9
				c15.7-12.6,11.1-41.2,11.2-59.1C1218.9,458.5,1219.1,444.7,1219.3,430.8z"/>
			<linearGradient id="XMLID_8_" gradientUnits="userSpaceOnUse" x1="1112.9915" y1="471.3198" x2="508.9914" y2="1137.3198">
				<stop  offset="0" style="stop-color:#FAF5BE"/>
				<stop  offset="0.1411" style="stop-color:#F39F8C"/>
				<stop  offset="0.2772" style="stop-color:#E87A87"/>
				<stop  offset="0.6436" style="stop-color:#154666"/>
				<stop  offset="0.9247" style="stop-color:#04364F"/>
			</linearGradient>
			<path id="XMLID_1117_" fill="url(#XMLID_8_)" d="M1142.7,422.9c10.4,7.1,17.4,14.2,17.4,14.2l10.4-17.4c0,0-7.1-10.9-15.3-12.5
				C1144.9,419.6,1142.7,422.9,1142.7,422.9z"/>
			<linearGradient id="XMLID_9_" gradientUnits="userSpaceOnUse" x1="1097.7351" y1="457.4838" x2="493.7351" y2="1123.4838">
				<stop  offset="0" style="stop-color:#FAF5BE"/>
				<stop  offset="0.1411" style="stop-color:#F39F8C"/>
				<stop  offset="0.2772" style="stop-color:#E87A87"/>
				<stop  offset="0.6436" style="stop-color:#154666"/>
				<stop  offset="0.9247" style="stop-color:#04364F"/>
			</linearGradient>
			<path id="XMLID_1116_" fill="url(#XMLID_9_)" d="M1114.9,422.9c10.4,7.1,17.4,14.2,17.4,14.2l10.4-17.4c0,0-7.1-10.9-15.3-12.5
				C1117.1,419.6,1114.9,422.9,1114.9,422.9z"/>
			<linearGradient id="XMLID_10_" gradientUnits="userSpaceOnUse" x1="1029.448" y1="395.5537" x2="425.448" y2="1061.5537">
				<stop  offset="0" style="stop-color:#FAF5BE"/>
				<stop  offset="0.1411" style="stop-color:#F39F8C"/>
				<stop  offset="0.2772" style="stop-color:#E87A87"/>
				<stop  offset="0.6436" style="stop-color:#154666"/>
				<stop  offset="0.9247" style="stop-color:#04364F"/>
			</linearGradient>
			<path id="XMLID_1115_" fill="url(#XMLID_10_)" d="M936.9,481.9c10.4,7.1,17.4,14.2,17.4,14.2l10.4-17.4c0,0-7.1-10.9-15.3-12.5
				C939.1,478.6,936.9,481.9,936.9,481.9z"/>
			<linearGradient id="XMLID_11_" gradientUnits="userSpaceOnUse" x1="965.8176" y1="337.8469" x2="361.8176" y2="1003.8469">
				<stop  offset="0" style="stop-color:#FAF5BE"/>
				<stop  offset="0.1411" style="stop-color:#F39F8C"/>
				<stop  offset="0.2772" style="stop-color:#E87A87"/>
				<stop  offset="0.6436" style="stop-color:#154666"/>
				<stop  offset="0.9247" style="stop-color:#04364F"/>
			</linearGradient>
			<path id="XMLID_1114_" fill="url(#XMLID_11_)" d="M907.5,386.5c10.4,7.1,17.4,14.2,17.4,14.2l10.4-17.4c0,0-7.1-10.9-15.3-12.5
				C909.7,383.2,907.5,386.5,907.5,386.5z"/>
			<linearGradient id="XMLID_12_" gradientUnits="userSpaceOnUse" x1="980.8583" y1="351.4874" x2="376.8583" y2="1017.4874">
				<stop  offset="0" style="stop-color:#FAF5BE"/>
				<stop  offset="0.1411" style="stop-color:#F39F8C"/>
				<stop  offset="0.2772" style="stop-color:#E87A87"/>
				<stop  offset="0.6436" style="stop-color:#154666"/>
				<stop  offset="0.9247" style="stop-color:#04364F"/>
			</linearGradient>
			<path id="XMLID_1113_" fill="url(#XMLID_12_)" d="M936.4,384.8c10.4,7.1,17.4,14.2,17.4,14.2l10.4-17.4c0,0-7.1-10.9-15.3-12.5
				C938.5,381.6,936.4,384.8,936.4,384.8z"/>
			<linearGradient id="XMLID_13_" gradientUnits="userSpaceOnUse" x1="969.8647" y1="341.5173" x2="365.8648" y2="1007.5173">
				<stop  offset="0" style="stop-color:#FAF5BE"/>
				<stop  offset="0.1411" style="stop-color:#F39F8C"/>
				<stop  offset="0.2772" style="stop-color:#E87A87"/>
				<stop  offset="0.6436" style="stop-color:#154666"/>
				<stop  offset="0.9247" style="stop-color:#04364F"/>
			</linearGradient>
			<path id="XMLID_1112_" fill="url(#XMLID_13_)" d="M1128.8,171.1c0,0,0.8,185.5,0.8,198.5s-7.6,24.3-23.9,24.9
				c-16.4,0.5-25.6,1.1-49.6-22.4c-24-23.4-119.7-92-151.3-108.9c-31.6-16.9-47.4-19.6-27.3-32.7s116.1-60.5,171.2-69.2
				c55.1-8.7,63.2,6,33.8,31.6c-29.4,25.6-39.3,50.2-39.3,50.2s25.1-30,38.7-42.5c13.6-12.5,24-23.4,27.3-33.3s7.1-22.4-10.4-27.3
				c-17.4-4.9-62.7,8.2-92.1,18c-29.4,9.8-103.1,41.1-128.1,57.8c-11.4,7.6-12.5,10.4-14.7,22.4s-3.8,15.3,10.4,27.3
				s57.8,40.3,72,54.5s45.3,49.1,49.1,61.1s3.8,20.2-9.8,25.1s-51.2,4.9-94.3,29.4c-43.1,24.5-57.8,53.4-78.5,48
				c-20.7-5.5-22.4-46.9,11.4-87.2c0-2.7,0-2.7,0-2.7s-23.4,19.6-32.2,52.9c-8.7,33.3,14.2,50.2,33.8,49.1
				c19.6-1.1,54.7-42.6,86.7-55.1c51.8-20.2,73.1-8.7,86.1-27.3c13.1-18.5,6-30-2.2-49.1c-8.2-19.1-24.5-38.2-24.5-38.2
				s50.5,32.1,71.2,56c20.7,24,30.5,30,55.6,30s36.6-24.9,40.8-42c4.2-17.2,2-21.5,2-32.6c0-30.5,0-133,0-133l7.1,12l1.6-10.4
				c0,0-10.4-32.2-11.4-45.3C1132.1,166.2,1128.8,171.1,1128.8,171.1z"/>
			<linearGradient id="XMLID_14_" gradientUnits="userSpaceOnUse" x1="1036.3196" y1="401.7856" x2="432.3196" y2="1067.7856">
				<stop  offset="0" style="stop-color:#FAF5BE"/>
				<stop  offset="0.1411" style="stop-color:#F39F8C"/>
				<stop  offset="0.2772" style="stop-color:#E87A87"/>
				<stop  offset="0.6436" style="stop-color:#154666"/>
				<stop  offset="0.9247" style="stop-color:#04364F"/>
			</linearGradient>
			<path id="XMLID_1111_" fill="url(#XMLID_14_)" d="M1047,436.6c-1.1-1.6-20.7-25.6-20.7-25.6l-7.1,15.3
				c18.5,40.9,18.5,41.4,21.8,52.9c3.3,11.4-0.5,13.1-14.2,25.6c-13.6,12.5-114.4,73.2-151.5,50.5c-31.4-19.2-27.9-46.1-23.5-65.2
				c-3.8,2.7-2.3,2.9-2.3,2.9s-11.1,28.8,3.4,55.5c18.7,34.4,50.7,28.3,80.1,20.7c29.4-7.6,94.9-42.5,106.9-55.6
				c12-13.1,10.4-31.6,8.7-42.5c-1.6-10.9-12-34.3-12-34.3l8.2,4.9L1047,436.6z"/>
			<linearGradient id="XMLID_15_" gradientUnits="userSpaceOnUse" x1="942.4286" y1="316.6352" x2="338.4286" y2="982.6353">
				<stop  offset="0" style="stop-color:#FAF5BE"/>
				<stop  offset="0.1411" style="stop-color:#F39F8C"/>
				<stop  offset="0.2772" style="stop-color:#E87A87"/>
				<stop  offset="0.6436" style="stop-color:#154666"/>
				<stop  offset="0.9247" style="stop-color:#04364F"/>
			</linearGradient>
			<path id="XMLID_1110_" fill="url(#XMLID_15_)" d="M1025.8,239.3c-8.7-15.8-11.4-26.2-9.8-34.9c1.6-8.7-7.1,1.1-9.3,6
				s-7.1,27.8-1.6,52.9s7.6,30.5,7.6,30.5s-55.1,1.6-94.9,31.1c-39.8,29.4-46.9,45.8-69.8,53.4c-22.9,7.6-44.7-3.3-31.6-36.5
				c13.1-33.3,51.2-60.5,51.2-60.5l1.6-5.5c0,0-35.4,19.1-59.4,63.2c-24,44.2,23.4,80.7,60.5,46.3c37.1-34.3,58.3-55.6,102.5-67.1
				c44.2-11.4,51.2-8.2,63.8,2.2c12.5,10.4,7.1,5.5,9.8,8.2c2.7,2.7,4.9-0.5,6-4.4s1.1-15.3,1.1-15.3s-26.7-13.6-34.9-39.8
				s-4.4-36-4.4-36L1025.8,239.3z"/>
		</g>
	</g>
	<g id="XMLID_1068_">
		<defs>
			<rect id="XMLID_1064_" width="1400" height="1400"/>
		</defs>
		<clipPath id="XMLID_16_">
			<use xlink:href="#XMLID_1064_"  overflow="visible"/>
		</clipPath>
		<g id="XMLID_1065_" clip-path="url(#XMLID_16_)">
			<path id="XMLID_756_" fill="#04364F" d="M838.2,1467.1l115.7,81.5l-1071.5-1v-285.5c0,0,282-152.6,285.3-147.7
				s390.9,137.3,390.9,137.3L838.2,1467.1z"/>
			<path id="XMLID_755_" fill="#04364F" d="M1068.3,1333.8l-98.1,53.1l-210.5-35c-12.6-2.1-26.2-2.7-37.6-1.6l-19.4,1.8
				c0,0-25.8-13.9-71.5-21.5c-72.7-12.1-164,0.5-193.2,9.9c6.2,4.9,16.9,11.5,30.5,18.2c29,14.5,70.6,29.9,113.8,35.6
				c39.8,5.3,75.8,2.9,75.8,2.9l10.3,5.1c5.8,2.9,15.5,5.3,26.6,6.8l188.5,24.9l-18.3,9.9l-35.9,19.4l-463.6-46.7c0,0,0,0,0,0l0,0
				c-0.2,0-0.4,0-0.6-0.1l-1.3-0.1c-34.3-3.8-68.5-16.5-68.5-16.5s-4.4,7.3-42.2,5.3l-88.2-8.9l-13.8-1.4l0,0l0,0l-22.3-2.2
				l-11.4-1.1l207-197.8L1068.3,1333.8z"/>
			<g id="XMLID_618_">
				<g id="XMLID_1035_">
					<g id="XMLID_981_">
						<radialGradient id="XMLID_17_" cx="386.9123" cy="728.7642" r="299.6125" gradientUnits="userSpaceOnUse">
							<stop  offset="0" style="stop-color:#E87A87"/>
							<stop  offset="0.6234" style="stop-color:#154666"/>
							<stop  offset="0.9247" style="stop-color:#04364F"/>
						</radialGradient>
						<polygon id="XMLID_994_" fill="url(#XMLID_17_)" points="724.8,1024.8 459.8,1169.5 393.1,1111.5 45.2,808.9 309.2,663.2 
							723.8,1023.8 						"/>
						<radialGradient id="XMLID_18_" cx="1108.7163" cy="1300.5452" r="665.3521" gradientUnits="userSpaceOnUse">
							<stop  offset="0" style="stop-color:#E87A87"/>
							<stop  offset="0.6234" style="stop-color:#154666"/>
							<stop  offset="0.9247" style="stop-color:#04364F"/>
						</radialGradient>
						<path id="XMLID_996_" fill="url(#XMLID_18_)" d="M1070.8,1325.7l-85.5,47.2l-94.8-88.9c-5-4.7-11.9-8-18.9-9.2l-12.1-2
							c0,0-0.8-18.6-17.2-34c-24.7-23.1-82.6-29.2-107.9-26.9c-2.9,5.3-5.5,12.9-7,21.5c-3.5,19.6-1.4,44.8,15.7,60.8
							c16.4,15.4,41.1,20.6,41.1,20.6l-0.4,9c-0.2,5.2,2.5,10.9,7.5,15.6l94.4,88.5l-24.9,13.7l-53.9,29.7L577.6,1272c0,0,0,0,0,0
							l0,0c-0.1-0.1-0.2-0.1-0.2-0.2l-0.5-0.5c-12.9-12.1-8.2-33.3-8.2-33.3s-16.6,6.7-34.2-3.6l-31.2-27.2l-4.7-4.1v0h0l-7.5-6.5
							l-3.8-3.3l334.6-84.2L1070.8,1325.7z"/>
						<radialGradient id="XMLID_19_" cx="976.0651" cy="1409.1927" r="236.2454" gradientUnits="userSpaceOnUse">
							<stop  offset="0" style="stop-color:#E87A87"/>
							<stop  offset="0.6234" style="stop-color:#154666"/>
							<stop  offset="0.9247" style="stop-color:#04364F"/>
						</radialGradient>
						<polygon id="XMLID_1067_" fill="url(#XMLID_19_)" points="885.7,1427.9 869.5,1449.8 790.7,1493.3 806.9,1471.3 860.8,1441.6 
													"/>
						<radialGradient id="XMLID_20_" cx="1171.8835" cy="1292.9651" r="292.2042" gradientUnits="userSpaceOnUse">
							<stop  offset="0" style="stop-color:#E87A87"/>
							<stop  offset="0.6234" style="stop-color:#154666"/>
							<stop  offset="0.9247" style="stop-color:#04364F"/>
						</radialGradient>
						<polygon id="XMLID_1066_" fill="url(#XMLID_20_)" points="1070.8,1325.7 1054.7,1347.6 969.2,1394.8 985.4,1372.8 						"/>
						<path id="XMLID_999_" fill="#04364F" d="M806.9,1471.3l-16.2,22l-229.2-199.4l0,0l-0.7-0.7c-12.9-12.1-8.2-33.3-8.2-33.3
							l16.1-22l0,0c0,0-4.6,21.1,8.2,33.3l0.5,0.5c0.1,0.1,0.1,0.1,0.2,0.2l0,0c0,0,0,0,0,0L806.9,1471.3z"/>
						<path id="XMLID_967_" fill="#04364F" d="M568.6,1238l-16.1,22c0,0-16.6,6.7-34.2-3.6l-47.2-41.1l-4.7-4.1l-7.3-6.3l-4-3.4
							l32.1-8.1l3.8,3.3l7.5,6.5h0v0l4.7,4.1l31.2,27.2C551.7,1244.5,568.1,1238.2,568.6,1238z"/>
						<radialGradient id="XMLID_21_" cx="577.4988" cy="1271.8483" r="0.1139" gradientUnits="userSpaceOnUse">
							<stop  offset="0" style="stop-color:#E87A87"/>
							<stop  offset="0.6234" style="stop-color:#154666"/>
							<stop  offset="0.9247" style="stop-color:#04364F"/>
						</radialGradient>
						<path id="XMLID_965_" fill="url(#XMLID_21_)" d="M577.6,1272C577.6,1272,577.6,1272,577.6,1272L577.6,1272
							c-0.1-0.1-0.2-0.1-0.2-0.2L577.6,1272z"/>
						<radialGradient id="XMLID_22_" cx="1403.0756" cy="783.8372" r="536.9556" gradientUnits="userSpaceOnUse">
							<stop  offset="0" style="stop-color:#E87A87"/>
							<stop  offset="0.6234" style="stop-color:#154666"/>
							<stop  offset="0.9247" style="stop-color:#04364F"/>
						</radialGradient>
						<polygon id="XMLID_988_" fill="url(#XMLID_22_)" points="1035.1,1024.7 1299.1,879.1 1307.9,907.7 1043.9,1053.3 						"/>
						<radialGradient id="XMLID_23_" cx="244.4199" cy="993.2335" r="200.4464" gradientUnits="userSpaceOnUse">
							<stop  offset="0" style="stop-color:#E87A87"/>
							<stop  offset="0.6234" style="stop-color:#154666"/>
							<stop  offset="0.9247" style="stop-color:#04364F"/>
						</radialGradient>
						<polygon id="XMLID_997_" fill="url(#XMLID_23_)" points="459.8,1169.5 427.7,1177.6 367.8,1125.5 29.1,830.9 45.2,808.9 
							393.1,1111.5 						"/>
						<radialGradient id="XMLID_24_" cx="389.8733" cy="949.3353" r="451.889" gradientUnits="userSpaceOnUse">
							<stop  offset="0" style="stop-color:#E87A87"/>
							<stop  offset="0.6234" style="stop-color:#154666"/>
							<stop  offset="0.9247" style="stop-color:#04364F"/>
						</radialGradient>
						<polygon id="XMLID_992_" fill="url(#XMLID_24_)" points="427.7,1177.6 144.1,1248.9 367.8,1125.5 						"/>
						<radialGradient id="XMLID_25_" cx="1309.5881" cy="896.2749" r="501.1466" gradientUnits="userSpaceOnUse">
							<stop  offset="0" style="stop-color:#E87A87"/>
							<stop  offset="0.6234" style="stop-color:#154666"/>
							<stop  offset="0.9247" style="stop-color:#04364F"/>
						</radialGradient>
						<polygon id="XMLID_989_" fill="url(#XMLID_25_)" points="1299.1,879.1 1035.1,1024.8 794.4,1085.3 459.8,1169.5 724.8,1024.8 
							723.8,1023.8 						"/>
						<polygon id="XMLID_987_" fill="#04364F" points="1043.9,1053.3 821.9,1109.2 487.2,1193.4 455.1,1201.4 152.9,1277.5 
							144.1,1248.9 427.7,1177.6 459.8,1169.5 794.4,1085.3 1035.1,1024.8 						"/>
					</g>
					<radialGradient id="XMLID_26_" cx="911.6346" cy="615.8124" r="829.4595" gradientUnits="userSpaceOnUse">
						<stop  offset="0" style="stop-color:#FAF5BE"/>
						<stop  offset="0.1411" style="stop-color:#F39F8C"/>
						<stop  offset="0.2772" style="stop-color:#E87A87"/>
						<stop  offset="0.6436" style="stop-color:#154666"/>
						<stop  offset="0.9247" style="stop-color:#04364F"/>
					</radialGradient>
					<polygon id="XMLID_1017_" fill="url(#XMLID_26_)" points="857.7,907.4 361.2,1175.1 303.6,1206.2 283.1,1217.2 -64.3,914.3 
						509.3,603.5 856.6,906.5 					"/>
					<polygon id="XMLID_983_" fill="#2252F2" points="1346.1,818.2 779,1132.6 344.8,1241.8 910.1,929 					"/>
					<radialGradient id="XMLID_27_" cx="844.5828" cy="1023.381" r="383.5873" gradientUnits="userSpaceOnUse">
						<stop  offset="0" style="stop-color:#E87A87"/>
						<stop  offset="0.6234" style="stop-color:#154666"/>
						<stop  offset="0.9247" style="stop-color:#04364F"/>
					</radialGradient>
					<polygon id="XMLID_1015_" fill="url(#XMLID_27_)" points="1344.3,812.3 777.1,1122.7 344.8,1234.4 365.6,1222.9 542.7,1124.9 
						910.1,921.6 					"/>
					<polygon id="XMLID_1003_" fill="#04364F" points="779,1132.6 344.8,1241.8 279.7,1223.2 -67.7,920.3 -64.3,914.3 283.1,1217.2 
						344.8,1234.4 777.1,1122.7 					"/>
					<radialGradient id="XMLID_28_" cx="1231.2607" cy="840.6877" r="1022.4883" gradientUnits="userSpaceOnUse">
						<stop  offset="0" style="stop-color:#E87A87"/>
						<stop  offset="0.6234" style="stop-color:#154666"/>
						<stop  offset="0.9247" style="stop-color:#04364F"/>
					</radialGradient>
					<polygon id="XMLID_985_" fill="url(#XMLID_28_)" points="1346.1,818.2 1344.3,812.3 777.1,1122.7 779,1132.6 					"/>
					<path id="XMLID_1011_" fill="#04364F" d="M365.6,1222.9l-20.8,11.5l-61.8-17.2l20.5-11.1C327.5,1199,360.3,1219.5,365.6,1222.9
						z"/>
					<radialGradient id="XMLID_29_" cx="627.3821" cy="686.9808" r="680.4298" gradientUnits="userSpaceOnUse">
						<stop  offset="0.1382" style="stop-color:#FAF5BE"/>
						<stop  offset="0.1549" style="stop-color:#F9EDBB"/>
						<stop  offset="0.286" style="stop-color:#F0B3A2"/>
						<stop  offset="0.3489" style="stop-color:#ED9C98"/>
						<stop  offset="0.4673" style="stop-color:#E87A87"/>
						<stop  offset="0.7958" style="stop-color:#154666"/>
						<stop  offset="0.9247" style="stop-color:#04364F"/>
					</radialGradient>
					<path id="XMLID_835_" fill="url(#XMLID_29_)" d="M766.7,1114.4l-400.3,109c0,0-0.3-0.2-0.7-0.5c-5.3-3.4-38.2-24-62-16.8
						L-34.6,916.4c15.9-6.8,33.4-11.8,55.7-11.9c137.6,97.6,276.8,195.7,331.2,273.1c52.2-36.7,146.2-58.5,247.9-77.6
						c29.7-3.3,61.1-8.3,94.3-17c0.1,0,0.2-0.1,0.3-0.1l12.8-3.5C725.6,1085.3,748.4,1096,766.7,1114.4z"/>
					<path id="XMLID_1013_" fill="#2256F2" d="M1244.9,789.5L1053.1,893l-149.4,40.7c0,0-36.7-25.1-62.7-17.3l-12.9-11L515.8,637.7
						l42.7-23l319.7,263.6l11.4,9.4l342.3-94.6c0.1,0,0.2-0.1,0.3-0.1L1244.9,789.5z"/>
					<path id="XMLID_763_" fill="#04364F" d="M352.3,1177.6c-54.3-77.4-193.6-175.4-331.2-273.1C181.1,1003,361,1104.7,352.3,1177.6
						z"/>
					<linearGradient id="XMLID_30_" gradientUnits="userSpaceOnUse" x1="930.5172" y1="657.324" x2="-867.7755" y2="1561.2076">
						<stop  offset="0.1382" style="stop-color:#FAF5BE"/>
						<stop  offset="0.1549" style="stop-color:#F9EDBB"/>
						<stop  offset="0.286" style="stop-color:#F0B3A2"/>
						<stop  offset="0.3489" style="stop-color:#ED9C98"/>
						<stop  offset="0.4673" style="stop-color:#E87A87"/>
						<stop  offset="0.7958" style="stop-color:#154666"/>
						<stop  offset="0.9247" style="stop-color:#04364F"/>
					</linearGradient>
					<path id="XMLID_1006_" fill="url(#XMLID_30_)" d="M890.3,871.8l-477.2,257.6c-0.1,0.1-0.2,0.1-0.2,0.1l-0.1,0
						c-0.2,0.1-0.4,0.2-0.5,0.3c0,0,0,0,0,0l-0.1,0c-22.4,10.1-42.4,25-59.9,47.6c2.3-19.2-8.5-40.5-28.7-63.1
						c-56.2-63.2-184.7-137.5-302.5-210l537.4-289.8C664.5,692,796.9,762.4,857.7,821.6c0,0,0,0,0,0
						C875.9,839.4,887.7,856.2,890.3,871.8z"/>
					<linearGradient id="XMLID_31_" gradientUnits="userSpaceOnUse" x1="592.5881" y1="967.1208" x2="625.8911" y2="1030.8027">
						<stop  offset="2.955665e-002" style="stop-color:#ED9C98;stop-opacity:0"/>
						<stop  offset="8.809960e-002" style="stop-color:#ED9997;stop-opacity:6.032598e-002"/>
						<stop  offset="0.6468" style="stop-color:#E9828B;stop-opacity:0.6361"/>
						<stop  offset="1" style="stop-color:#E87A87"/>
					</linearGradient>
					<path id="XMLID_998_" fill="url(#XMLID_31_)" d="M890.3,871.8l-477.2,257.6c-0.1,0.1-0.2,0.1-0.2,0.1l-0.1,0
						c-0.2,0.1-0.4,0.2-0.5,0.3c0,0,0,0,0,0l-0.1,0c-22.4,10.1-42.4,25-59.9,47.6c2.3-19.2-8.5-40.5-28.7-63.1
						c0,0,531.8-295,534-292.8c0,0,0,0,0,0C875.9,839.4,887.7,856.2,890.3,871.8z"/>
					<linearGradient id="XMLID_32_" gradientUnits="userSpaceOnUse" x1="787.6907" y1="579.8247" x2="-182.5578" y2="922.1911">
						<stop  offset="0.1382" style="stop-color:#FAF5BE"/>
						<stop  offset="0.1549" style="stop-color:#F9EDBB"/>
						<stop  offset="0.286" style="stop-color:#F0B3A2"/>
						<stop  offset="0.3489" style="stop-color:#ED9C98"/>
						<stop  offset="0.4673" style="stop-color:#E87A87"/>
						<stop  offset="0.7958" style="stop-color:#154666"/>
						<stop  offset="0.9247" style="stop-color:#04364F"/>
					</linearGradient>
					<path id="XMLID_1016_" fill="url(#XMLID_32_)" d="M558.5,614.7l-42.7,23L21.1,904.5c-22.3,0-39.8,5.1-55.7,11.9l537.4-289.8
						C518.7,619.8,536.2,614.7,558.5,614.7z"/>
					<path id="XMLID_1007_" fill="#22D9F2" d="M944.3,842.7l-9.8,5.3C937.7,846.1,940.9,844.3,944.3,842.7z"/>
					<path id="XMLID_815_" fill="#04364F" d="M472.1,1112.9c38-6.2,80.7-7.6,128-12.9c-101.7,19.1-195.7,40.9-247.9,77.6
						c17.6-22.6,37.5-37.5,59.9-47.6l0.1,0c0,0,0,0,0,0C430.7,1121.6,450.6,1116.5,472.1,1112.9z"/>
					<path id="XMLID_1012_" fill="#22D9F2" d="M1244.9,789.5c-4.2,1.2-8.4,2.4-12.6,3.5L1244.9,789.5z"/>
					<linearGradient id="XMLID_33_" gradientUnits="userSpaceOnUse" x1="1175.5583" y1="714.1852" x2="228.0896" y2="1384.9932">
						<stop  offset="0.1382" style="stop-color:#FAF5BE"/>
						<stop  offset="0.1549" style="stop-color:#F9EDBB"/>
						<stop  offset="0.286" style="stop-color:#F0B3A2"/>
						<stop  offset="0.3489" style="stop-color:#ED9C98"/>
						<stop  offset="0.4673" style="stop-color:#E87A87"/>
						<stop  offset="0.7958" style="stop-color:#154666"/>
						<stop  offset="0.9247" style="stop-color:#04364F"/>
					</linearGradient>
					<path id="XMLID_962_" fill="url(#XMLID_33_)" d="M1244.9,789.6l-191.8,103.4l-345.6,186.4c-4.3,1.2-8.6,2.4-12.8,3.5
						c-0.1,0-0.2,0.1-0.3,0.1c-86,22.7-160.5,19.8-222.3,30c-21.5,3.5-41.5,8.6-59.8,16.9c0.1-0.1,0.3-0.1,0.5-0.3l0.1,0
						c0.1,0,0.1-0.1,0.2-0.1l71.3-38.5l10.5-5.7l5-2.7l4.5-2.5l17.4-9.4l4.1-2.2l18.5-10l4.2-2.3l18.3-9.9l4.4-2.3l18.2-9.8l4.4-2.4
						l18-9.7l4.5-2.5l17.8-9.6l4.7-2.6l17.6-9.5l4.8-2.6l17.3-9.3l5.1-2.7l17.1-9.2l5.2-2.8l16.7-9l5.4-2.9l16.3-8.8l5.7-3.1
						L766,939l6-3.2l15.2-8.2l6.4-3.4l14.5-7.8l6.9-3.8l13.1-7.1l0.4-0.2c0,0,0,0,0.1,0l7.6-4.1l12.1-6.5l8.7-4.7l10-5.4l10.2-5.5
						l1.1-0.6l12.1-6.5l2-1.1l6.9-3.7l8.1-4.4l7.3-3.9l19.7-10.7l0.1-0.1l9.8-5.3c19.8-9.9,41.6-15.6,65.3-19.5
						c61.8-10.2,136.4-7.3,222.5-30c0.1,0,0.2-0.1,0.3-0.1C1236.5,792,1240.7,790.9,1244.9,789.6z"/>
					<linearGradient id="XMLID_34_" gradientUnits="userSpaceOnUse" x1="1187.5918" y1="789.5641" x2="296.934" y2="1585.4712">
						<stop  offset="0.1382" style="stop-color:#FAF5BE"/>
						<stop  offset="0.1549" style="stop-color:#F9EDBB"/>
						<stop  offset="0.286" style="stop-color:#F0B3A2"/>
						<stop  offset="0.3489" style="stop-color:#ED9C98"/>
						<stop  offset="0.4673" style="stop-color:#E87A87"/>
						<stop  offset="0.7958" style="stop-color:#154666"/>
						<stop  offset="0.9247" style="stop-color:#04364F"/>
					</linearGradient>
					<path id="XMLID_1019_" fill="url(#XMLID_34_)" d="M1304.1,824.7l-537.4,289.8c-18.3-18.5-41.1-29.1-59.2-35.1L1053.1,893
						l191.8-103.4C1263,795.5,1285.9,806.2,1304.1,824.7z"/>
				</g>
				<path id="XMLID_1071_" fill="#04364F" d="M985.4,1372.8l-16.2,22l-8.8-8.2l-86.1-80.7c-5-4.7-11.9-8-18.9-9.2l-12.1-2
					c0,0-0.8-18.6-17.2-34c-22.1-20.7-70.6-27.7-98.8-27.4c1.5-8.7,4.2-16.3,7-21.5c25.4-2.3,83.2,3.8,107.9,26.9
					c16.4,15.4,17.2,34,17.2,34l12.1,2c7,1.2,13.9,4.5,18.9,9.2L985.4,1372.8z"/>
				<linearGradient id="XMLID_35_" gradientUnits="userSpaceOnUse" x1="771.5159" y1="711.22" x2="247.2279" y2="995.4725">
					<stop  offset="0" style="stop-color:#E87A87"/>
					<stop  offset="0.6234" style="stop-color:#154666"/>
					<stop  offset="0.9247" style="stop-color:#04364F"/>
					<stop  offset="1" style="stop-color:#04364F"/>
				</linearGradient>
				<path id="XMLID_1100_" fill="url(#XMLID_35_)" d="M816.3,843.7L816.3,843.7l-1.3-2.5c-0.4-0.8-0.8-1.7-1.4-2.4
					c-1-1.5-1.9-3.1-3-4.4c-2.1-2.8-4.4-5.3-6.8-7.7c-4.7-4.8-9.7-9.2-14.8-13.3c-5.1-4.2-10.4-8.1-15.7-11.9
					c-5.3-3.8-10.8-7.5-16.3-11c-2.8-1.8-5.5-3.5-8.4-5.2c-2.8-1.7-5.6-3.3-8.4-5c-2.7-1.7-5.4-3.3-8.1-5.1
					c-2.7-1.8-5.4-3.5-8.1-5.3c-10.8-7.1-21.6-14.4-32.3-21.6c-21.5-14.6-42.9-29.3-64.2-44c-10.7-7.4-21.4-14.8-32-22.2l-34.1-23.9
					L119,902.1l-10.1,5.6l10.1,5.5l0,0c5.6,3,11.2,6.2,16.8,9.3c5.6,3.1,11.2,6.3,16.8,9.5c11.1,6.4,22.2,12.9,33.3,19.6
					c22,13.3,43.8,27,65.2,41.3l8,5.4l7.9,5.5c2.7,1.8,5.3,3.7,7.9,5.5c2.6,1.8,5.2,3.7,7.8,5.6l7.8,5.7l7.7,5.8
					c2.6,1.9,5.1,3.9,7.6,5.9l3.8,2.9l3.7,3c5,4,9.9,8.1,14.7,12.2l7.1,6.3c2.3,2.1,4.6,4.3,6.9,6.5c4.5,4.4,8.9,8.9,13,13.6
					l1.6,1.7l1.5,1.8l2.9,3.6c1,1.2,1.8,2.5,2.7,3.7l2.6,3.7l3.4,4.9l5-2.8l439.6-244.1l3.7-2.1L816.3,843.7z M366.2,1070.2
					l-1.7-1.9c-4.4-5-9-9.7-13.8-14.3c-2.4-2.3-4.8-4.5-7.2-6.8l-7.3-6.5c-5-4.2-10-8.5-15.1-12.5l-3.8-3.1l-3.9-3
					c-2.6-2-5.1-4-7.7-6l-7.8-5.8l-7.9-5.7c-2.6-1.9-5.3-3.8-7.9-5.7c-2.7-1.9-5.3-3.8-8-5.6l-8-5.5l-8.1-5.4
					c-21.6-14.4-43.5-28.2-65.7-41.6c-11.1-6.7-22.3-13.2-33.5-19.7c-5.6-3.2-11.2-6.4-16.9-9.6c-2.3-1.3-4.7-2.6-7-3.9l425.8-239.2
					l62,42.5c21.4,14.7,42.9,29.3,64.4,43.8c10.8,7.2,21.6,14.5,32.5,21.6c2.7,1.8,5.5,3.5,8.2,5.3c2.7,1.8,5.5,3.5,8.4,5.2
					c2.8,1.7,5.6,3.3,8.3,5c2.7,1.7,5.4,3.4,8.1,5.1c5.4,3.5,10.7,7.1,15.9,10.9c5.2,3.8,10.3,7.7,15.2,11.8
					c4.9,4.1,9.7,8.3,13.9,12.9c2.1,2.3,4.2,4.6,5.9,7.1c1,1.2,1.6,2.5,2.4,3.7c0,0.1,0.1,0.1,0.1,0.2l-432.7,236.1
					c-0.8-1.2-1.6-2.4-2.6-3.5l-3.2-3.9L366.2,1070.2z"/>
				<linearGradient id="XMLID_36_" gradientUnits="userSpaceOnUse" x1="686.3762" y1="806.2975" x2="247.9957" y2="941.4754">
					<stop  offset="0" style="stop-color:#E87A87"/>
					<stop  offset="0.6234" style="stop-color:#154666"/>
					<stop  offset="0.9247" style="stop-color:#04364F"/>
					<stop  offset="1" style="stop-color:#04364F"/>
				</linearGradient>
				<path id="XMLID_1139_" fill="url(#XMLID_36_)" d="M800,840.9c-1.6-2.1-3.3-4-5-5.8c-3.9-4.2-8.2-8.1-13.6-12.6
					c-4.6-3.9-9.5-7.6-15-11.6c-5.5-4-11-7.7-15.8-10.8c-3.3-2.2-5.8-3.7-8-5.1c-1.3-0.8-2.5-1.5-3.9-2.3l-0.6-0.4
					c-1.3-0.8-2.6-1.5-3.9-2.4c-2.9-1.7-5.7-3.5-8.4-5.2c-0.7-0.5-1.5-0.9-2.3-1.4l-1.7-1.1c-1.4-0.9-2.9-1.8-4.3-2.8
					c-10.9-7.1-21.7-14.3-32.1-21.4l-0.4-0.2c-23.5-15.8-46.8-31.7-64.5-43.9l-60.1-41.1L144.8,906.5l-2,1.1l2,1.1
					c4.8,2.7,9.9,5.6,16.1,9.2c11,6.4,22.3,13,33.5,19.7c24.4,14.7,45.9,28.3,65.8,41.7l8.1,5.4l8.1,5.5c1.7,1.2,3.5,2.4,5.2,3.7
					c0.6,0.4,1.1,0.8,1.7,1.2l1.1,0.8c3,2.1,5.5,3.9,8,5.7l7.8,5.7l7.9,5.9c1.7,1.2,3.3,2.5,4.9,3.8l0.1,0.1
					c0.9,0.7,1.8,1.4,2.7,2.1l3.9,3l3.9,3.1c5,4,9.9,8.2,14.7,12.2l7.8,6.9l0.1,0.1c1.3,1.2,2.6,2.4,3.9,3.7l0.8,0.8
					c0.8,0.8,1.6,1.5,2.4,2.3l0.2,0.2c5.5,5.4,9.9,10,13.9,14.5l1.6,1.8l4.8,5.9l0.8,1l426.2-232.5L800,840.9z M344.2,976.7
					c-16.9-10.4-39.5-24.2-68.1-41.6c-24.7-15.1-52.7-32.1-84.9-51.8l22.3-12.5c47.6,29.5,88,54.3,117.5,72.5
					c13.9,8.5,25.8,15.9,35.7,22c33.9,21,71.9,54,78.5,68l-22.4,12.2C416,1030.9,378.1,997.6,344.2,976.7z M421.7,1046.1l-22.4,12.2
					c-6.7-15-43.8-47.8-78.2-69.1c-19.1-11.8-45.9-27.9-79.8-48.3c-21.7-13-46.2-27.8-73.7-44.4l22.3-12.5
					c32.5,19.9,60.6,37,85.5,52.2c28.7,17.4,51.3,31.2,68.1,41.6C377.4,998.7,415.2,1031.8,421.7,1046.1z M367.3,964.2
					c-9.9-6.1-21.8-13.4-35.7-22c-29.4-18.1-69.6-42.8-116.9-72.1l22.3-12.5c61.8,38.7,117.5,73.4,152.7,95.2
					c33.4,20.6,72.3,54,78.9,67.7l-22.4,12.2C439.4,1018.3,401.3,985.2,367.3,964.2z M390.4,951.7c-35.2-21.7-90.6-56.2-152.2-94.8
					l22.3-12.5c75.3,47.8,123.8,78.3,152.3,95.9c33.5,20.7,72.6,54,79.3,67.4l-22.4,12.2C462.8,1005.7,424.5,972.7,390.4,951.7z
					 M413.5,939.2c-28.5-17.6-76.7-47.9-151.7-95.5l22.3-12.5c68.8,44.2,121,77.6,151.8,96.6c33.6,20.8,72.9,53.9,79.7,67.1
					l-22.4,12.2C486.3,993.3,447.1,959.9,413.5,939.2z M436.6,926.7c-30.7-19-82.7-52.2-151.2-96.3l22.3-12.5
					c61.3,39.9,118.9,77.3,151.4,97.3c33.1,20.4,73.2,53.9,80.2,66.8l-22.4,12.2C509.7,980.7,470.3,947.5,436.6,926.7z M459.7,914.1
					c-32.4-20-89.7-57.2-150.8-97l22.3-12.5c63.8,42,119.1,78.4,150.9,98.1c33.2,20.5,73.5,53.8,80.6,66.5l-22.4,12.2
					C533.1,968.1,493.5,935,459.7,914.1z M482.8,901.6C451,882,395.9,845.8,332.4,804l22.3-12.5c63.6,42.5,118.8,79.2,150.5,98.8
					c33.3,20.5,73.7,53.7,81,66.2l-22.4,12.2C556.4,955.5,516.7,922.6,482.8,901.6z M505.9,889.1c-31.5-19.5-86.5-56-149.9-98.4
					l22.3-12.5c61,41.3,118.2,79.9,150,99.5c32.7,20.2,74,53.7,81.4,65.9l-22.4,12.2C579.9,943.1,539.2,909.7,505.9,889.1z
					 M528.9,876.6c-31.6-19.5-88.7-58-149.4-99.1l22.3-12.5c60.5,41.5,117.4,80.3,149.5,100.2c32.8,20.2,74.3,53.6,81.8,65.6
					l-22.4,12.2C603.2,930.5,562.4,897.3,528.9,876.6z M552,864.1c-32-19.8-88.7-58.4-149-99.8l22.3-12.5
					c57.6,40.1,116.5,80.8,149.1,100.9c32.9,20.3,74.6,53.5,82.2,65.3l-22.4,12.2C626.6,918,585,884.4,552,864.1z M575.1,851.6
					c-32.5-20-91.1-60.6-148.5-100.5l22.3-12.5c67.6,47.6,118.7,83.2,148.6,101.6c32.3,19.9,74.8,53.5,82.6,65l-22.4,12.2
					C650,905.4,608.1,871.9,575.1,851.6z M598.2,839.1c-29.8-18.4-80.8-53.8-148.1-101.2l22.3-12.5c58,41.4,115.9,82.4,148.2,102.3
					c32.3,20,75.1,53.4,83,64.7l-22.4,12.2C673.4,892.8,631.3,859.5,598.2,839.1z M621.3,826.5c-32.2-19.9-89.9-60.6-147.6-101.9
					l22.3-12.5c51.5,37.3,114.5,82.5,147.7,103c32.4,20,75.3,53.2,83.4,64.4l-22.4,12.2C696.8,880.3,653.8,846.6,621.3,826.5z
					 M644.4,814c-33.1-20.4-95.8-65.4-147.2-102.6l22.3-12.5c47,34.5,112.9,82.5,147.3,103.7c31.8,19.6,75.6,53.2,83.8,64.1
					l-22.4,12.2C720.2,867.6,676.9,834.1,644.4,814z M667.5,801.5c-34.2-21.1-99.8-68.8-146.7-103.3l22.3-12.5
					c72.3,54,120.4,88.1,146.8,104.5c31.8,19.6,75.8,53.1,84.2,63.8L751.7,866C743.5,855.1,699.4,821.2,667.5,801.5z M371.2,1066.3
					l-1.9-2.1c-4-4.6-8.5-9.2-14-14.7l-0.1-0.1c-0.8-0.8-1.6-1.5-2.5-2.3l-0.8-0.8c-1.3-1.2-2.6-2.5-3.9-3.7l-7.4-6.6l-0.6-0.5
					c-4.8-4-9.7-8.2-14.7-12.2l-3.7-3l-4-3.1c-0.9-0.7-1.8-1.4-2.7-2.1l-0.1-0.1c-1.6-1.3-3.3-2.6-5-3.8l-7.8-5.8l-7.9-5.8
					c-2.7-2-5.5-3.9-8-5.7l-1.1-0.8c-0.6-0.4-1.1-0.8-1.7-1.2c-1.7-1.2-3.5-2.5-5.3-3.7l-8.1-5.6l-8.1-5.4
					c-20-13.4-41.6-27-65.9-41.7c-11.2-6.7-22.5-13.4-33.6-19.7c-5.4-3.1-9.9-5.7-14.1-8.1l18.4-10.3c27.7,16.8,52.5,31.6,74.3,44.8
					c33.9,20.4,60.7,36.5,79.8,48.3c33.7,20.8,71.3,54.1,77.7,68.6l-22.9,12.5L371.2,1066.3z M775.2,853.2
					c-8.3-10.7-52.6-44.5-84.6-64.2c-26.4-16.3-74.2-50.3-146.3-104.1l16.2-9.1l58.8,40.3c17.7,12.1,41,28.1,64.5,43.9l0.4,0.2
					c10.5,7,21.3,14.3,32.2,21.4c1.4,1,2.9,1.9,4.3,2.8l1.7,1.1c0.8,0.5,1.5,1,2.3,1.4c2.7,1.8,5.6,3.5,8.5,5.3
					c1.3,0.8,2.6,1.6,3.9,2.3l0.6,0.4c1.3,0.8,2.6,1.5,3.8,2.3c2.2,1.3,4.7,2.9,8,5c4.7,3.1,10.3,6.8,15.7,10.7
					c5.4,3.9,10.3,7.7,14.8,11.5c5.2,4.4,9.5,8.2,13.3,12.4c1.3,1.4,2.6,2.9,3.9,4.5L775.2,853.2z"/>
				<linearGradient id="XMLID_37_" gradientUnits="userSpaceOnUse" x1="1159.1925" y1="831.814" x2="575.5274" y2="1045.3192">
					<stop  offset="0" style="stop-color:#E87A87"/>
					<stop  offset="0.6234" style="stop-color:#154666"/>
					<stop  offset="0.9247" style="stop-color:#04364F"/>
					<stop  offset="1" style="stop-color:#04364F"/>
				</linearGradient>
				<path id="XMLID_951_" fill="url(#XMLID_37_)" d="M1158.5,819.6L684.2,1068c-16.6,3.2-38.6,6.8-82,8.1
					c-31.1,1-80.9,7.4-117.8,14.9l8.5-4.6c21.4-5.5,52.2-9.9,80.1-13.7c37.2-5.2,69-3.1,106.8-11.2l453.8-233.6
					c0,0-77.3,10.6-117.9,13c-31.7,1.9-68.6,7-108.3,21.8l7.3-3.9c20.5-7.4,47.1-14.7,78.7-18.3
					C1045.4,834.5,1106,830.2,1158.5,819.6z"/>
				<g id="XMLID_750_">
					<linearGradient id="XMLID_38_" gradientUnits="userSpaceOnUse" x1="416.733" y1="1108.9316" x2="416.7327" y2="1108.9318">
						<stop  offset="0" style="stop-color:#E87A87"/>
						<stop  offset="0.6234" style="stop-color:#154666"/>
						<stop  offset="0.9247" style="stop-color:#04364F"/>
						<stop  offset="1" style="stop-color:#04364F"/>
					</linearGradient>
					<polygon id="XMLID_751_" fill="url(#XMLID_38_)" points="416.7,1108.9 416.7,1108.9 416.7,1108.9 					"/>
					<linearGradient id="XMLID_39_" gradientUnits="userSpaceOnUse" x1="1157.7172" y1="827.7809" x2="574.0521" y2="1041.2861">
						<stop  offset="0" style="stop-color:#E87A87"/>
						<stop  offset="0.6234" style="stop-color:#154666"/>
						<stop  offset="0.9247" style="stop-color:#04364F"/>
						<stop  offset="1" style="stop-color:#04364F"/>
					</linearGradient>
					<path id="XMLID_816_" fill="url(#XMLID_39_)" d="M1112.8,833.3c-20.1,2.8-40.3,5.4-60.6,7.3c-20.2,2-40.6,3.2-60.8,5l-3.8,0.3
						l-7.6,0.8c-1.3,0.2-2.5,0.4-3.8,0.5c-2.5,0.4-5.1,0.7-7.6,1.2c-2.5,0.5-5,0.9-7.5,1.4c-5,1-10,2.1-14.9,3.3l-7.4,1.9l-7.4,2
						c-9.8,2.7-19.5,5.7-29.2,9c-1,0.3-2,0.7-3,1l-6.9,3.7c3.4-1.2,6.9-2.4,10.3-3.5c9.6-3.2,19.4-6.2,29.1-8.9l7.4-2l7.4-1.9
						c4.9-1.2,9.9-2.3,14.9-3.3c2.5-0.5,5-0.9,7.5-1.4c2.5-0.5,5-0.8,7.5-1.2c1.3-0.2,2.5-0.4,3.8-0.5l3.8-0.4l3.8-0.4l3.8-0.3
						c20.3-1.7,40.6-3,60.9-5c19-1.8,38-4.2,57-6.8l-24.3,12.6c-40.3,6.1-74.3,6.4-115.3,9.7c-30,2.4-61.2,9.6-92.5,21.7l-10.2,5.5
						c34.7-14.6,69.6-23.2,102.8-25.9c39.7-3.2,72.9-3.5,111.8-9.2l-20.3,10.5c-40.9,6.3-75.3,6.7-116.8,10.2
						c-28.3,2.4-57.8,8.9-87.4,19.8l-8.7,4.7c32.5-12.9,65.1-20.6,96.2-23.2c40.2-3.4,73.9-3.8,113.3-9.6l-20.3,10.5
						c-41.5,6.6-76.3,7-118.3,10.6c-26.9,2.3-54.8,8.4-82.9,18.2l-7.6,4.1c30.7-11.5,61.3-18.5,90.6-21
						c40.8-3.5,74.8-4.1,114.8-10.1l-20.3,10.5c-42,6.8-77.3,7.3-119.9,11.1c-25.6,2.3-52.1,7.9-78.8,16.8l-6.9,3.8
						c29.1-10.4,58-16.8,85.8-19.3c41.3-3.7,75.7-4.4,116.2-10.6L990,896.8c-42.6,7-78.2,7.7-121.4,11.6
						c-24.4,2.2-49.5,7.4-74.9,15.6l-6.4,3.4c27.6-9.4,55-15.4,81.4-17.8c41.8-3.9,76.6-4.6,117.7-11.1l-20.2,10.4
						c-43.2,7.2-79.2,8-122.9,12.2c-23.2,2.2-47.1,7-71.3,14.5l-6,3.2c26.2-8.6,52.3-14.1,77.4-16.5c42.3-4,77.6-4.9,119.2-11.6
						l-20.5,10.6l0-0.1c-43.6,7.4-80,8.3-124.1,12.6c-22.1,2.2-44.8,6.7-67.8,13.5l-5.7,3.1c25-7.9,49.7-13,73.6-15.3
						c42.9-4.2,78.5-5.2,120.7-12.1L918,934l0-0.2c-44,7.5-80.7,8.6-125.2,13c-21,2.1-42.7,6.3-64.6,12.6l-5.4,2.9
						c23.8-7.3,47.3-12,70.1-14.3c43.4-4.4,79.5-5.5,122.2-12.6l-20.5,10.6l-0.8,0.4l-0.1-0.4c-44.4,7.7-81.4,8.9-126.3,13.5
						c-20,2.1-40.6,6-61.4,11.8l-5.2,2.8c22.6-6.7,45-11.1,66.7-13.3c43.9-4.5,80.4-5.8,123.7-13.1l-21.6,11.1l-0.1-0.5
						c-44.8,7.8-82.2,9.1-127.4,13.9c-19.1,2-38.6,5.7-58.4,11l-5.1,2.7c21.5-6.2,42.9-10.3,63.6-12.5c44.4-4.7,81.2-6.1,125-13.5
						l-21.8,11.2l-0.1-0.5c-45.2,8-82.9,9.4-128.6,14.4c-18.1,1.9-36.7,5.4-55.5,10.3l-4.8,2.6c20.5-5.7,40.7-9.6,60.5-11.7
						c44.9-4.8,82.1-6.3,126.4-14l-22,11.3l-0.1-0.6c-45.6,8.1-83.6,9.7-129.7,14.8c-17.2,1.9-34.8,5.1-52.6,9.6l-4.7,2.6
						c19.5-5.2,38.7-8.9,57.5-10.9c45.3-5,82.9-6.6,127.7-14.5l-22.2,11.4l-0.1-0.7c-46,8.3-84.3,10-130.8,15.2
						c-16.3,1.8-33,4.9-49.9,9l-4.5,2.5c18.5-4.8,36.7-8.2,54.6-10.2c45.8-5.2,83.8-6.9,129.1-14.9l-10.1,5.2l-12.4,6.3l-0.1-0.7
						c-46.4,8.5-85,10.3-131.9,15.7c-15.5,1.8-31.2,4.6-47.2,8.4l-4.4,2.4c17.5-4.4,34.8-7.6,51.7-9.6c46.2-5.3,84.6-7.2,130.3-15.4
						l-22.6,11.5l-0.1-0.7c-46.8,8.6-85.8,10.6-133,16.1c-14.6,1.7-29.5,4.3-44.5,7.8l-4.4,2.3c16.6-4.1,32.9-7,49-8.9
						c46.6-5.5,85.3-7.5,131.4-15.8l-16.5,8.4l-6.1,3.1l-0.1-0.7c-47.1,8.7-86.5,10.8-134.1,16.5c-13.8,1.7-27.8,4.1-41.9,7.3
						l-4.2,2.3c15.6-3.7,31.1-6.5,46.3-8.3c47-5.6,86-7.8,132.5-16.3l-19.6,10l-2.9,1.5l-0.1-0.6c-47.6,8.9-87.2,11.1-135.2,17
						c-12.9,1.6-26,3.8-39.3,6.8l-4.1,2.2c14.7-3.4,29.3-6,43.6-7.8c47.3-5.8,86.5-8,133.2-16.6l-8.8,4.4c-4.5,2.3-9.1,4.5-13.6,6.7
						c0,0,0,0,0,0c-3.8,1-7.7,1.8-11.6,2.5c-3.9,0.6-7.8,1.2-11.8,1.6c-4,0.4-7.9,0.8-11.9,1.1l-11.9,0.9c-7.9,0.6-15.9,1.2-23.8,2
						c-4,0.4-7.9,0.8-11.9,1.2l-11.9,1.4c-7.9,0.9-15.8,1.9-23.7,2.9c-4,0.5-7.9,1-11.9,1.6c-3.9,0.6-7.9,1.2-11.8,1.8
						c-3.9,0.6-7.9,1.3-11.8,2c-3.9,0.7-7.8,1.5-11.7,2.3c-2,0.4-4,0.9-6.1,1.4l-4.5,2.5c3.6-0.9,7.2-1.8,10.9-2.6
						c3.9-0.8,7.8-1.6,11.7-2.3c3.9-0.7,7.8-1.4,11.8-2c3.9-0.6,7.9-1.2,11.8-1.8c3.9-0.6,7.9-1.1,11.8-1.6c7.9-1,15.8-2,23.7-2.9
						l11.9-1.3c4-0.4,7.9-0.8,11.9-1.2c7.9-0.7,15.9-1.3,23.8-1.9l11.9-0.9c4-0.3,7.9-0.7,11.9-1.1c4-0.4,7.9-0.9,11.9-1.5
						c3.9-0.6,7.9-1.5,11.8-2.5l0.1,0l0.1,0c4.6-2.3,9.2-4.5,13.8-6.8l13.7-6.9l27.4-13.9l54.6-28l109.1-56.2l95.3-49.3
						c0.1,0,0.1,0,0.1,0v0l71.1-36.8c0.1,0,0.2,0,0.3,0V861l51.2-26.5l3.3-1.7L1112.8,833.3z"/>
				</g>
			</g>
		</g>
	</g>
</g>
</svg>
