<svg xmlns="http://www.w3.org/2000/svg" width="44.992" height="36.564" viewBox="0 0 44.992 36.564">
  <g id="Group_29" data-name="Group 29" transform="translate(-1437.28 -5847.425)">
    <g id="twitter" transform="translate(1420 5824)">
      <g id="Group_21" data-name="Group 21" transform="translate(17.28 23.425)">
        <path id="Path_4" data-name="Path 4" d="M61.1,26.166a18.417,18.417,0,0,1-5.3,1.452,9.256,9.256,0,0,0,4.059-5.106A18.479,18.479,0,0,1,54,24.751a9.238,9.238,0,0,0-15.73,8.42,26.2,26.2,0,0,1-19.027-9.646A9.241,9.241,0,0,0,22.1,35.85a9.166,9.166,0,0,1-4.181-1.156c0,.039,0,.078,0,.117a9.236,9.236,0,0,0,7.405,9.05,9.267,9.267,0,0,1-4.168.16,9.24,9.24,0,0,0,8.623,6.41,18.634,18.634,0,0,1-13.666,3.822A26.11,26.11,0,0,0,30.258,58.4c16.979,0,26.264-14.065,26.264-26.264,0-.4-.009-.8-.027-1.194A18.718,18.718,0,0,0,61.1,26.166Z" transform="translate(-16.109 -21.837)" fill="#f1f2f2"/>
      </g>
    </g>
  </g>
</svg>
