<?xml version="1.0" encoding="utf-8"?>
<!-- Generator: Adobe Illustrator 22.1.0, SVG Export Plug-In . SVG Version: 6.00 Build 0)  -->
<svg version="1.1" xmlns="http://www.w3.org/2000/svg" xmlns:xlink="http://www.w3.org/1999/xlink" x="0px" y="0px"
	 viewBox="0 0 2272 1872" style="enable-background:new 0 0 2272 1872;" xml:space="preserve">
<style type="text/css">
	.st0{fill:#8889C2;}
	.st1{fill:#464977;}
	.st2{fill:#440235;}
	.st3{fill:#663E22;}
	.st4{fill:#9B613A;}
	.st5{fill:#C9AF85;}
	.st6{fill:#8E7859;}
	.st7{fill:#2E2539;}
	.st8{fill:#5A4B70;}
	.st9{fill:#FCE0AD;}
	.st10{fill:#E0B673;}
</style>
<g id="Background">
	<g>
		<g>
			<rect x="0" class="st0" width="2272" height="1872"/>
		</g>
	</g>
</g>
<g id="object">
	<g>
		<path class="st1" d="M685.4,445.1L227,547.3c-19.7,4.4-30.2,25.9-21.7,44.2C303,799.1,795.7,1832.2,821.7,1821.8
			c28.6-11.4,1117.5-335.7,1117.5-335.7l-493-1281L685.4,445.1"/>
		<path class="st2" d="M483.7,545.9L344,572.1c-21.2,4-32.9,26.9-23.6,46.4l531.2,1112.4l142.5-47L483.7,545.9z"/>
		<g>
			<g>
				<g>
					<path class="st3" d="M1968,1281.8c-13.1,1.5-25.8,8.5-37.5,14.1c-12,5.7-23.7,12-35.1,18.7c-7.5,4.4-0.4,15.5,7.2,11.2
						c11.1-6.3,22.4-12.2,34-17.7c5.6-2.6,11.2-5.2,16.9-7.5c6.1-2.6,12.3-4.8,17.7-8.6C1975.3,1289.1,1974.2,1281.1,1968,1281.8z"
						/>
					<path class="st3" d="M1956.5,1243.6c-13.1,1.5-25.8,8.5-37.5,14.1c-12,5.7-23.7,12-35.1,18.7c-7.5,4.4-0.4,15.5,7.2,11.2
						c11.1-6.3,22.4-12.2,34-17.7c5.6-2.6,11.2-5.2,16.9-7.5c6.1-2.6,12.3-4.8,17.7-8.6C1963.8,1250.9,1962.7,1242.9,1956.5,1243.6z
						"/>
					<path class="st3" d="M1945.1,1205.4c-13.1,1.5-25.8,8.5-37.5,14.1c-12,5.7-23.7,12-35.1,18.7c-7.5,4.4-0.4,15.5,7.2,11.2
						c11.1-6.3,22.4-12.2,34-17.7c5.6-2.6,11.2-5.2,16.9-7.5c6.1-2.6,12.3-4.8,17.7-8.6C1952.4,1212.7,1951.3,1204.7,1945.1,1205.4z
						"/>
					<path class="st3" d="M1933.6,1167.2c-13.1,1.5-25.8,8.5-37.5,14.1c-12,5.7-23.7,12-35.1,18.7c-7.5,4.4-0.4,15.5,7.2,11.2
						c11.1-6.3,22.4-12.2,34-17.7c5.6-2.6,11.2-5.2,16.9-7.5c6.1-2.6,12.3-4.8,17.7-8.6C1940.9,1174.5,1939.8,1166.5,1933.6,1167.2z
						"/>
					<path class="st3" d="M1922.2,1129c-13.1,1.5-25.8,8.5-37.5,14.1c-12,5.7-23.7,12-35.1,18.7c-7.5,4.4-0.4,15.5,7.2,11.2
						c11.1-6.3,22.4-12.2,34-17.7c5.6-2.6,11.2-5.2,16.9-7.5c6.1-2.6,12.3-4.8,17.7-8.6C1929.5,1136.3,1928.4,1128.3,1922.2,1129z"
						/>
					<path class="st3" d="M1910.7,1090.8c-13.1,1.5-25.8,8.5-37.5,14.1c-12,5.7-23.7,12-35.1,18.7c-7.5,4.4-0.4,15.5,7.2,11.2
						c11.1-6.3,22.4-12.2,34-17.7c5.6-2.6,11.2-5.2,16.9-7.5c6.1-2.6,12.3-4.8,17.7-8.6C1918,1098.1,1916.9,1090,1910.7,1090.8z"/>
					<path class="st3" d="M1899.2,1052.6c-13.1,1.5-25.8,8.5-37.5,14.1c-12,5.7-23.7,12-35.1,18.7c-7.5,4.4-0.4,15.5,7.2,11.2
						c11.1-6.3,22.4-12.2,34-17.7c5.6-2.6,11.2-5.2,16.9-7.5c6.1-2.6,12.3-4.8,17.7-8.6C1906.5,1059.9,1905.4,1051.8,1899.2,1052.6z
						"/>
					<path class="st3" d="M1887.8,1014.4c-13.1,1.5-25.8,8.5-37.5,14.1c-12,5.7-23.7,12-35.1,18.7c-7.5,4.4-0.4,15.5,7.2,11.2
						c11.1-6.3,22.4-12.2,34-17.7c5.6-2.6,11.2-5.2,16.9-7.5c6.1-2.6,12.3-4.8,17.7-8.6C1895.1,1021.7,1894,1013.6,1887.8,1014.4z"
						/>
					<path class="st3" d="M1876.3,976.2c-13.1,1.5-25.8,8.5-37.5,14.1c-12,5.7-23.7,12-35.1,18.7c-7.5,4.4-0.4,15.5,7.2,11.2
						c11.1-6.3,22.4-12.2,34-17.7c5.6-2.6,11.2-5.2,16.9-7.5c6.1-2.6,12.3-4.8,17.7-8.6C1883.6,983.5,1882.5,975.4,1876.3,976.2z"/>
					<path class="st3" d="M1864.9,937.9c-13.1,1.5-25.8,8.5-37.5,14.1c-12,5.7-23.7,12-35.1,18.7c-7.5,4.4-0.4,15.5,7.2,11.2
						c11.1-6.3,22.4-12.2,34-17.7c5.6-2.6,11.2-5.2,16.9-7.5c6.1-2.6,12.3-4.8,17.7-8.6C1872.2,945.3,1871.1,937.2,1864.9,937.9z"/>
					<path class="st3" d="M1853.4,899.7c-13.1,1.5-25.8,8.5-37.5,14.1c-12,5.7-23.7,12-35.1,18.7c-7.5,4.4-0.4,15.5,7.2,11.2
						c11.1-6.3,22.4-12.2,34-17.7c5.6-2.6,11.2-5.2,16.9-7.5c6.1-2.6,12.3-4.8,17.7-8.6C1860.7,907.1,1859.6,899,1853.4,899.7z"/>
					<path class="st3" d="M1842,861.5c-13.1,1.5-25.8,8.5-37.5,14.1c-12,5.7-23.7,12-35.1,18.7c-7.5,4.4-0.4,15.5,7.2,11.2
						c11.1-6.3,22.4-12.2,34-17.7c5.6-2.6,11.2-5.2,16.9-7.5c6.1-2.6,12.3-4.8,17.7-8.6C1849.3,868.9,1848.2,860.8,1842,861.5z"/>
					<path class="st3" d="M1830.5,823.3c-13.1,1.5-25.8,8.5-37.5,14.1c-12,5.7-23.7,12-35.1,18.7c-7.5,4.4-0.4,15.5,7.2,11.2
						c11.1-6.3,22.4-12.2,34-17.7c5.6-2.6,11.2-5.2,16.9-7.5c6.1-2.6,12.3-4.8,17.7-8.6C1837.8,830.7,1836.7,822.6,1830.5,823.3z"/>
					<path class="st3" d="M1819,785.1c-13.1,1.5-25.8,8.5-37.5,14.1c-12,5.7-23.7,12-35.1,18.7c-7.5,4.4-0.4,15.5,7.2,11.2
						c11.1-6.3,22.4-12.2,34-17.7c5.6-2.6,11.2-5.2,16.9-7.5c6.1-2.6,12.3-4.8,17.7-8.6C1826.3,792.5,1825.2,784.4,1819,785.1z"/>
					<path class="st3" d="M1807.6,746.9c-13.1,1.5-25.8,8.5-37.5,14.1c-12,5.7-23.7,12-35.1,18.7c-7.5,4.4-0.4,15.5,7.2,11.2
						c11.1-6.3,22.4-12.2,34-17.7c5.6-2.6,11.2-5.2,16.9-7.5c6.1-2.6,12.3-4.8,17.7-8.6C1814.9,754.3,1813.8,746.2,1807.6,746.9z"/>
					<path class="st3" d="M1796.1,708.7c-13.1,1.5-25.8,8.5-37.5,14.1c-12,5.7-23.7,12-35.1,18.7c-7.5,4.4-0.4,15.5,7.2,11.2
						c11.1-6.3,22.4-12.2,34-17.7c5.6-2.6,11.2-5.2,16.9-7.5c6.1-2.6,12.3-4.8,17.7-8.6C1803.4,716,1802.3,708,1796.1,708.7z"/>
					<path class="st3" d="M1784.7,670.5c-13.1,1.5-25.8,8.5-37.5,14.1c-12,5.7-23.7,12-35.1,18.7c-7.5,4.4-0.4,15.5,7.2,11.2
						c11.1-6.3,22.4-12.2,34-17.7c5.6-2.6,11.2-5.2,16.9-7.5c6.1-2.6,12.3-4.8,17.7-8.6C1792,677.8,1790.9,669.8,1784.7,670.5z"/>
					<path class="st3" d="M1773.2,632.3c-13.1,1.5-25.8,8.5-37.5,14.1c-12,5.7-23.7,12-35.1,18.7c-7.5,4.4-0.4,15.5,7.2,11.2
						c11.1-6.3,22.4-12.2,34-17.7c5.6-2.6,11.2-5.2,16.9-7.5c6.1-2.6,12.3-4.8,17.7-8.6C1780.5,639.6,1779.4,631.6,1773.2,632.3z"/>
					<path class="st3" d="M1761.8,594.1c-13.1,1.5-25.8,8.5-37.5,14.1c-12,5.7-23.7,12-35.1,18.7c-7.5,4.4-0.4,15.5,7.2,11.2
						c11.1-6.3,22.4-12.2,34-17.7c5.6-2.6,11.2-5.2,16.9-7.5c6.1-2.6,12.3-4.8,17.7-8.6C1769.1,601.4,1768,593.4,1761.8,594.1z"/>
					<path class="st3" d="M1750.3,555.9c-13.1,1.5-25.8,8.5-37.5,14.1c-12,5.7-23.7,12-35.1,18.7c-7.5,4.4-0.4,15.5,7.2,11.2
						c11.1-6.3,22.4-12.2,34-17.7c5.6-2.6,11.2-5.2,16.9-7.5c6.1-2.6,12.3-4.8,17.7-8.6C1757.6,563.2,1756.5,555.2,1750.3,555.9z"/>
					<path class="st3" d="M1738.8,517.7c-13.1,1.5-25.8,8.5-37.5,14.1c-12,5.7-23.7,12-35.1,18.7c-7.5,4.4-0.4,15.5,7.2,11.2
						c11.1-6.3,22.4-12.2,34-17.7c5.6-2.6,11.2-5.2,16.9-7.5c6.1-2.6,12.3-4.8,17.7-8.6C1746.1,525,1745,517,1738.8,517.7z"/>
					<path class="st3" d="M1727.4,479.5c-13.1,1.5-25.8,8.5-37.5,14.1c-12,5.7-23.7,12-35.1,18.7c-7.5,4.4-0.4,15.5,7.2,11.2
						c11.1-6.3,22.4-12.2,34-17.7c5.6-2.6,11.2-5.2,16.9-7.5c6.1-2.6,12.3-4.8,17.7-8.6C1734.7,486.8,1733.6,478.8,1727.4,479.5z"/>
					<path class="st3" d="M1715.9,441.3c-13.1,1.5-25.8,8.5-37.5,14.1c-12,5.7-23.7,12-35.1,18.7c-7.5,4.4-0.4,15.5,7.2,11.2
						c11.1-6.3,22.4-12.2,34-17.7c5.6-2.6,11.2-5.2,16.9-7.5c6.1-2.6,12.3-4.8,17.7-8.6C1723.2,448.6,1722.1,440.5,1715.9,441.3z"/>
					<path class="st3" d="M1704.5,403.1c-13.1,1.5-25.8,8.5-37.5,14.1c-12,5.7-23.7,12-35.1,18.7c-7.5,4.4-0.4,15.5,7.2,11.2
						c11.1-6.3,22.4-12.2,34-17.7c5.6-2.6,11.2-5.2,16.9-7.5c6.1-2.6,12.3-4.8,17.7-8.6C1711.8,410.4,1710.7,402.3,1704.5,403.1z"/>
					<path class="st3" d="M1693,364.9c-13.1,1.5-25.8,8.5-37.5,14.1c-12,5.7-23.7,12-35.1,18.7c-7.5,4.4-0.4,15.5,7.2,11.2
						c11.1-6.3,22.4-12.2,34-17.7c5.6-2.6,11.2-5.2,16.9-7.5c6.1-2.6,12.3-4.8,17.7-8.6C1700.3,372.2,1699.2,364.1,1693,364.9z"/>
					<path class="st3" d="M1681.6,326.7c-13.1,1.5-25.8,8.5-37.5,14.1c-12,5.7-23.7,12-35.1,18.7c-7.5,4.4-0.4,15.5,7.2,11.2
						c11.1-6.3,22.4-12.2,34-17.7c5.6-2.6,11.2-5.2,16.9-7.5c6.1-2.6,12.3-4.8,17.7-8.6C1688.9,334,1687.8,325.9,1681.6,326.7z"/>
					<path class="st3" d="M1670.1,288.4c-13.1,1.5-25.8,8.5-37.5,14.1c-12,5.7-23.7,12-35.1,18.7c-7.5,4.4-0.4,15.5,7.2,11.2
						c11.1-6.3,22.4-12.2,34-17.7c5.6-2.6,11.2-5.2,16.9-7.5c6.1-2.6,12.3-4.8,17.7-8.6C1677.4,295.8,1676.3,287.7,1670.1,288.4z"/>
					<path class="st3" d="M1658.6,250.2c-13.1,1.5-25.8,8.5-37.5,14.1c-12,5.7-23.7,12-35.1,18.7c-7.5,4.4-0.4,15.5,7.2,11.2
						c11.1-6.3,22.4-12.2,34-17.7c5.6-2.6,11.2-5.2,16.9-7.5c6.1-2.6,12.3-4.8,17.7-8.6C1665.9,257.6,1664.8,249.5,1658.6,250.2z"/>
					<path class="st3" d="M1647.2,212c-13.1,1.5-25.8,8.5-37.5,14.1c-12,5.7-23.7,12-35.1,18.7c-7.5,4.4-0.4,15.5,7.2,11.2
						c11.1-6.3,22.4-12.2,34-17.7c5.6-2.6,11.2-5.2,16.9-7.5c6.1-2.6,12.3-4.8,17.7-8.6C1654.5,219.4,1653.4,211.3,1647.2,212z"/>
					<path class="st3" d="M1635.7,173.8c-13.1,1.5-25.8,8.5-37.5,14.1c-12,5.7-23.7,12-35.1,18.7c-7.5,4.4-0.4,15.5,7.2,11.2
						c11.1-6.3,22.4-12.2,34-17.7c5.6-2.6,11.2-5.2,16.9-7.5c6.1-2.6,12.3-4.8,17.7-8.6C1643,181.2,1641.9,173.1,1635.7,173.8z"/>
					<path class="st3" d="M1624.3,135.6c-13.1,1.5-25.8,8.5-37.5,14.1c-12,5.7-23.7,12-35.1,18.7c-7.5,4.4-0.4,15.5,7.2,11.2
						c11.1-6.3,22.4-12.2,34-17.7c5.6-2.6,11.2-5.2,16.9-7.5c6.1-2.6,12.3-4.8,17.7-8.6C1631.6,143,1630.5,134.9,1624.3,135.6z"/>
					<path class="st3" d="M1612.8,97.4c-13.1,1.5-25.8,8.5-37.5,14.1c-12,5.7-23.7,12-35.1,18.7c-7.5,4.4-0.4,15.5,7.2,11.2
						c11.1-6.3,22.4-12.2,34-17.7c5.6-2.6,11.2-5.2,16.9-7.5c6.1-2.6,12.3-4.8,17.7-8.6C1620.1,104.8,1619,96.7,1612.8,97.4z"/>
				</g>
				<path class="st4" d="M1945.9,1307.6l-352-1143.1c-16.1-52.4-71.7-81.8-124.1-65.7L513.4,393.3c-54.2,16.7-84.5,74.1-67.9,128.3
					l350.1,1136.8c16.7,54.2,74.1,84.5,128.3,67.9l956.4-294.5c14.5-4.5,27.3-12,37.8-21.6c6.3-5.7,0.2-16-7.9-13.3l-11.3,3.8
					c-5.8,1.9-11.9-2.5-11.6-8.7c0.1-3.5,2.4-6.5,5.5-7.9l36.9-15.9c12.5-5.4,20.7-17.6,20.7-31.2
					C1950.3,1327.2,1948.9,1317.4,1945.9,1307.6z"/>
				<path class="st3" d="M1243,1498.5c15.7-6.2,137.2-71.8,277.2-148.2l-320.9,102.1C1221.8,1483.6,1237.3,1500.8,1243,1498.5z"/>
				<path class="st5" d="M825.6,1571.4l1046.9-333.2L1537,226.4c0,0-976.1,342.2-1023.8,364.2c-14.9,6.9-27.6,17-38,27.6
					l303.1,984.2C799.4,1577.8,825.6,1571.4,825.6,1571.4z"/>
				<g>
					<g>
						<path class="st5" d="M1593.8,1459l-33.7-86.3l93.6-36.4l25.1,76.1l-70.7,26.5l-22.5-57.8l56.5-22.2l13,40.5l-38.8,13.8l-3-8.5
							l30.6-10.9l-7.4-23l-39.2,15.4l16,41.2l54.2-20.4l-19.4-58.8l-76.3,29.7l27.3,69.8c32.8-11.5,79-27.7,81.6-28.8l3.8,8.2
							c-2.6,1.2-66.9,23.7-86.6,30.6L1593.8,1459z"/>
					</g>
					<g>
						<g>
							<path class="st5" d="M885.4,1683.8l-33.7-86.3l93.6-36.4l25.1,76.1l-70.7,26.5l-22.5-57.8l56.5-22.2l13,40.5l-38.8,13.8
								l-3-8.5l30.6-10.9l-7.4-23l-39.2,15.4l16,41.2l54.2-20.4l-19.4-58.8l-76.3,29.7l27.3,69.8c32.8-11.5,79-27.7,81.6-28.8
								l3.8,8.2c-2.6,1.2-66.9,23.7-86.6,30.6L885.4,1683.8z"/>
						</g>
						<g>
							<path class="st5" d="M1003.4,1646.3l-33.7-86.3l93.6-36.4l25.1,76.1l-70.7,26.5l-22.5-57.8l56.5-22.2l13,40.5l-38.8,13.8
								l-3-8.5l30.6-10.9l-7.4-23l-39.2,15.4l16,41.2l54.2-20.4l-19.4-58.8l-76.3,29.7l27.3,69.8c32.8-11.5,79-27.7,81.6-28.8
								l3.8,8.2c-2.6,1.2-66.9,23.7-86.6,30.6L1003.4,1646.3z"/>
						</g>
						<g>
							<path class="st5" d="M1121.5,1608.9l-33.7-86.3l93.6-36.4l25.1,76.1l-70.7,26.5l-22.5-57.8l56.5-22.2l13,40.5l-38.8,13.8
								l-3-8.5l30.6-10.9l-7.4-23l-39.2,15.4l16,41.2l54.2-20.4l-19.4-58.8l-76.3,29.7l27.3,69.8c32.8-11.5,79-27.7,81.6-28.8
								l3.8,8.2c-2.6,1.2-66.9,23.7-86.6,30.6L1121.5,1608.9z"/>
						</g>
						<g>
							<path class="st5" d="M1239.6,1571.4l-33.7-86.3l93.6-36.4l25.1,76.1l-70.7,26.5l-22.5-57.8l56.5-22.2l13,40.5l-38.8,13.8
								l-3-8.5l30.6-10.9l-7.4-23l-39.2,15.4l16,41.2l54.2-20.4l-19.4-58.8l-76.3,29.7l27.3,69.8c32.8-11.5,79-27.7,81.6-28.8
								l3.8,8.2c-2.6,1.2-66.9,23.7-86.6,30.6L1239.6,1571.4z"/>
						</g>
						<g>
							<path class="st5" d="M1357.6,1534l-33.7-86.3l93.6-36.4l25.1,76.1l-70.7,26.5l-22.5-57.8l56.5-22.2l13,40.5l-38.8,13.8
								l-3-8.5l30.6-10.9l-7.4-23l-39.2,15.4l16,41.2l54.2-20.4l-19.4-58.8l-76.3,29.7l27.3,69.8c32.8-11.5,79-27.7,81.6-28.8
								l3.8,8.2c-2.6,1.2-66.9,23.7-86.6,30.6L1357.6,1534z"/>
						</g>
						<g>
							<path class="st5" d="M1475.7,1496.5l-33.7-86.3l93.6-36.4l25.1,76.1l-70.7,26.5l-22.5-57.8l56.5-22.2l13,40.5l-38.8,13.8
								l-3-8.5l30.6-10.9l-7.4-23l-39.2,15.4l16,41.2l54.2-20.4l-19.4-58.8l-76.3,29.7l27.3,69.8c32.8-11.5,79-27.7,81.6-28.8
								l3.8,8.2c-2.6,1.2-66.9,23.7-86.6,30.6L1475.7,1496.5z"/>
						</g>
						<g>
							<path class="st5" d="M1711.9,1421.6l-33.7-86.3l93.6-36.4l25.1,76.1l-70.7,26.5l-22.5-57.8l56.5-22.2l13,40.5l-38.8,13.8
								l-3-8.5l30.6-10.9l-7.4-23l-39.2,15.4l16,41.2l54.2-20.4l-19.4-58.8l-76.3,29.7l27.3,69.8c32.8-11.5,79-27.7,81.6-28.8
								l3.8,8.2c-2.6,1.2-66.9,23.7-86.6,30.6L1711.9,1421.6z"/>
						</g>
						<g>
							<path class="st5" d="M1829.9,1384.1l-33.7-86.3l93.6-36.4l25.1,76.1l-70.7,26.5l-22.5-57.8l56.5-22.2l13,40.5l-38.8,13.8
								l-3-8.5l30.6-10.9l-7.4-23l-39.2,15.4l16,41.2l54.2-20.4l-19.4-58.8l-76.3,29.7l27.3,69.8c32.8-11.5,79-27.7,81.6-28.8
								l3.8,8.2c-2.6,1.2-66.9,23.7-86.6,30.6L1829.9,1384.1z"/>
						</g>
					</g>
				</g>
				<g>
					<g>
						<path class="st5" d="M1196.4,321.9l-32.6-83.4l90.4-35.2l24.2,73.5l-68.3,25.6l-21.7-55.9l54.6-21.5l12.6,39.1l-37.5,13.3
							l-2.9-8.2l29.6-10.5l-7.2-22.2l-37.9,14.9l15.5,39.8l52.4-19.7l-18.7-56.8l-73.7,28.7l26.3,67.5
							c31.7-11.1,76.3-26.7,78.9-27.8l3.7,7.9c-2.5,1.2-64.6,22.9-83.6,29.5L1196.4,321.9z"/>
					</g>
					<g>
						<g>
							<path class="st5" d="M512.1,539l-32.6-83.4l90.4-35.2l24.2,73.5l-68.3,25.6l-21.7-55.9l54.6-21.5l12.6,39.1l-37.5,13.3
								l-2.9-8.2l29.6-10.5l-7.2-22.2l-37.9,14.9l15.5,39.8l52.4-19.7l-18.7-56.8l-73.7,28.7l26.3,67.5
								c31.7-11.1,76.3-26.7,78.9-27.8l3.7,7.9c-2.5,1.2-64.6,22.9-83.6,29.5L512.1,539z"/>
						</g>
						<g>
							<path class="st5" d="M626.1,502.8l-32.6-83.4l90.4-35.2l24.2,73.5l-68.3,25.6l-21.7-55.9l54.6-21.5l12.6,39.1l-37.5,13.3
								l-2.9-8.2l29.6-10.5l-7.2-22.2l-37.9,14.9l15.5,39.8l52.4-19.7l-18.7-56.8l-73.7,28.7l26.3,67.5
								c31.7-11.1,76.3-26.7,78.9-27.8l3.7,7.9c-2.5,1.2-64.6,22.9-83.6,29.5L626.1,502.8z"/>
						</g>
						<g>
							<path class="st5" d="M740.2,466.6l-32.6-83.4L798,348l24.2,73.5L754,447.1l-21.7-55.9l54.6-21.5l12.6,39.1l-37.5,13.3
								l-2.9-8.2l29.6-10.5l-7.2-22.2l-37.9,14.9l15.5,39.8l52.4-19.7l-18.7-56.8l-73.7,28.7l26.3,67.5
								c31.7-11.1,76.3-26.7,78.9-27.8l3.7,7.9c-2.5,1.2-64.6,22.9-83.6,29.5L740.2,466.6z"/>
						</g>
						<g>
							<path class="st5" d="M854.3,430.4L821.7,347l90.4-35.2l24.2,73.5L868,411l-21.7-55.9l54.6-21.5l12.6,39.1L876,386.1l-2.9-8.2
								l29.6-10.5l-7.2-22.2L857.6,360l15.5,39.8l52.4-19.7l-18.7-56.8L833,352l26.3,67.5c31.7-11.1,76.3-26.7,78.9-27.8l3.7,7.9
								c-2.5,1.2-64.6,22.9-83.6,29.5L854.3,430.4z"/>
						</g>
						<g>
							<path class="st5" d="M968.3,394.3l-32.6-83.4l90.4-35.2l24.2,73.5l-68.3,25.6l-21.7-55.9l54.6-21.5l12.6,39.1L990,349.9
								l-2.9-8.2l29.6-10.5l-7.2-22.2l-37.9,14.9l15.5,39.8l52.4-19.7l-18.7-56.8L947,315.8l26.3,67.5
								c31.7-11.1,76.3-26.7,78.9-27.8l3.7,7.9c-2.5,1.2-64.6,22.9-83.6,29.5L968.3,394.3z"/>
						</g>
						<g>
							<path class="st5" d="M1082.4,358.1l-32.6-83.4l90.4-35.2l24.2,73.5l-68.3,25.6l-21.7-55.9l54.6-21.5l12.6,39.1l-37.5,13.3
								l-2.9-8.2l29.6-10.5l-7.2-22.2l-37.9,14.9l15.5,39.8l52.4-19.7l-18.7-56.8l-73.7,28.7l26.3,67.5
								c31.7-11.1,76.3-26.7,78.9-27.8l3.7,7.9c-2.5,1.2-64.6,22.9-83.6,29.5L1082.4,358.1z"/>
						</g>
						<g>
							<path class="st5" d="M1310.5,285.7l-32.6-83.4l90.4-35.2l24.2,73.5l-68.3,25.6l-21.7-55.9l54.6-21.5l12.6,39.1l-37.5,13.3
								l-2.9-8.2l29.6-10.5l-7.2-22.2l-37.9,14.9l15.5,39.8l52.4-19.7l-18.7-56.8l-73.7,28.7l26.3,67.5
								c31.7-11.1,76.3-26.7,78.9-27.8l3.7,7.9c-2.5,1.2-64.6,22.9-83.6,29.5L1310.5,285.7z"/>
						</g>
						<g>
							<path class="st5" d="M1424.5,249.5l-32.6-83.4l90.4-35.2l24.2,73.5l-68.3,25.6l-21.7-55.9l54.6-21.5l12.6,39.1l-37.5,13.3
								l-2.9-8.2l29.6-10.5l-7.2-22.2l-37.9,14.9l15.4,39.8l52.4-19.7l-18.7-56.8l-73.7,28.7l26.3,67.5
								c31.7-11.1,76.3-26.7,78.9-27.8l3.7,7.9c-2.5,1.2-64.6,22.9-83.6,29.5L1424.5,249.5z"/>
						</g>
					</g>
				</g>
				<path class="st2" d="M1887.7,1389.1c0.1-3.5,25.8-14.1,28.9-15.5L896.4,1698.9c-4.7,1.5-6.6,7.1-3.9,11.2
					c1.8,2.7,5.2,3.9,8.4,2.9l1001.9-313.7C1897,1401.2,1887.5,1395.3,1887.7,1389.1z"/>
			</g>
			<path class="st4" d="M1537,226.4l312.7,943.2c16.5-9.1,31.9-17.6,45.9-25.3l-301.7-979.8c0,0-250.4,108.1-488.3,213.7
				C1332.1,298.2,1537,226.4,1537,226.4z"/>
			<path class="st2" d="M1105.5,378.2c-215.9,95.9-421.4,189.7-420,199c2.5,16.7,380.2,690.8,513.7,875.3l320.9-102.1
				c113.1-61.7,238.3-130.5,329.5-180.8L1537,226.4C1537,226.4,1332.1,298.2,1105.5,378.2z"/>
			<g>
				<path class="st2" d="M505.6,594.5l-50.8-154.6c-13.8,23.9-18.1,53.2-9.3,81.7l29.7,96.6C483.8,609.5,493.9,601.1,505.6,594.5z"
					/>
				<path class="st2" d="M865.9,1692.4l-39.8-121.2l-0.6,0.2c0,0-26.2,6.4-47.3,31l17.2,56c14.5,47.1,59.8,76.2,106.9,72
					C876.6,1725.3,865.9,1692.4,865.9,1692.4z"/>
				<path class="st6" d="M825.6,1571.4l0.6-0.2L505.6,594.5c-11.7,6.5-21.8,14.9-30.3,23.6l303.1,984.2
					C799.4,1577.8,825.6,1571.4,825.6,1571.4z"/>
			</g>
		</g>
		<g>
			<g>
				<g>
					<g>
						<polygon class="st7" points="1977.8,1047.6 1978.9,1038.2 1978.9,1038.2 						"/>
						<path class="st7" d="M1464.8,147.7c-7.3-12.6-23.5-17-36.1-9.7L756.8,514.1l527.5,914.1l694.5-390.1v0L1464.8,147.7z"/>
					</g>
					<path class="st7" d="M750.7,524.8c0.3-1,0.6-2,1-2.9C751.3,522.8,751,523.8,750.7,524.8z"/>
					<path class="st7" d="M750,529.4c0.1-1,0.2-2,0.4-3.1C750.2,527.3,750,528.4,750,529.4z"/>
					<path class="st7" d="M753.1,519.1C752.9,519.5,752.9,519.5,753.1,519.1L753.1,519.1z"/>
					<path class="st8" d="M1301.9,1418c-9.6,5.6-22,2.3-27.6-7.4l-510-894.5c-2.1-3.7-7.4-3.7-9.5,0c0,0-2.9,5.3-3.1,5.8
						c-0.4,1-0.7,1.9-1,2.9c-0.1,0.5-0.3,1-0.4,1.5c-0.2,1-0.3,2-0.4,3.1c-0.3,4.6,0.7,9.3,3.1,13.4l510.8,890.2
						c7.7,13.4,24.9,17.9,38.2,10l672.2-383.3c1.5-0.9,6-3.6,6-3.6c0.4-3.8-0.5-14.5-0.6-19.2L1301.9,1418z"/>
				</g>
				<path class="st9" d="M1437,104.9L855.3,417.6l-60,26v88.1l478.8,847.2c8,14.1,25.8,19,39.9,10.9l653.9-374.8l7.8-61.2
					L1437,104.9z"/>
				<path class="st5" d="M1973,957.9l-643.9,383.3c-6.3,3.8-13.5,4.7-20.1,3.2l-6.6,49.1c4-0.4,7.9-1.6,11.6-3.7l653.9-374.8
					l7.8-61.2C1975.4,955.5,1974.5,957,1973,957.9z"/>
				<g>
					<g>
						<polygon class="st7" points="1976.5,945.8 1977.6,936.4 1977.6,936.4 						"/>
						<path class="st7" d="M1463.5,45.9c-7.3-12.6-23.5-17-36.1-9.7L783.9,412.3l527.5,914.1l666.2-390.1v0L1463.5,45.9z"/>
					</g>
					<path class="st7" d="M777.8,423c0.3-1,0.6-2,1-2.9C778.4,421,778.1,422,777.8,423z"/>
					<path class="st7" d="M777.1,427.6c0.1-1,0.2-2,0.4-3.1C777.3,425.5,777.1,426.6,777.1,427.6z"/>
					<path class="st7" d="M780.2,417.2C780,417.7,780,417.7,780.2,417.2L780.2,417.2z"/>
					<path class="st8" d="M1963.9,945.8v101.8l15.7-8.9l-1.2-100.2c0-0.7-0.8-1.1-1.4-0.7L1963.9,945.8z"/>
					<path class="st8" d="M1329,1316.2c-9.6,5.6-22,2.3-27.6-7.4l-510-894.5c-2.1-3.7-7.4-3.7-9.5,0c0,0-2.9,5.3-3.1,5.8
						c-0.4,1-0.7,1.9-1,2.9c-0.1,0.5-0.3,1-0.4,1.5c-0.2,1-0.3,2-0.4,3.1c-0.3,4.6,0.7,9.3,3.1,13.4l510.8,890.2
						c7.7,13.4,24.9,17.9,38.2,10L1973,957.9c1.5-0.9,2.4-2.4,2.6-4.1l0,0c0.4-3.8,5.7-18.5,2-17.5L1329,1316.2z"/>
					<path class="st2" d="M1973,957.9l-643.9,383.3c0,0-0.1,0-0.1,0.1v0.9c0,13.8,15.1,22.2,26.8,15l616.7-378.5l3.2-24.9
						C1975.4,955.5,1974.5,957,1973,957.9z"/>
				</g>
			</g>
			<g>
				<path class="st10" d="M1334.7,1274.6c-1.7,0-3.5-0.2-5.2-0.7c-5.2-1.4-9.4-4.8-12-9.4L856.9,432.3c-5.2-9.3-1.8-21.2,7.4-26.5
					l561.2-323c4.6-2.6,9.9-3.3,14.9-1.9c5.1,1.4,9.3,4.6,11.9,9.2l468.4,817.4c5.3,9.3,2.2,21.2-7,26.6l-569.1,337.8
					C1341.6,1273.7,1338.1,1274.6,1334.7,1274.6z M1435.3,91.7c-1.4,0-2.8,0.4-4,1.1L870,415.8c-3.8,2.2-5.2,7.1-3.1,11l460.6,832.2
					c1.1,1.9,2.8,3.3,5,3.9c2.1,0.6,4.4,0.3,6.3-0.9l569.1-337.8c3.8-2.2,5.1-7.2,2.9-11L1442.3,95.8c-1.1-1.9-2.8-3.2-4.9-3.8
					C1436.7,91.8,1436,91.7,1435.3,91.7z"/>
			</g>
			<g>
				<path class="st8" d="M1340.9,1207.1c-1.6,0-3.2-0.2-4.8-0.6c-4.8-1.3-8.7-4.4-11.1-8.7L917,460.6c-4.7-8.6-1.7-19.5,6.8-24.4
					L1421,150.1c4.2-2.4,9.1-3,13.7-1.8c4.7,1.3,8.5,4.3,10.9,8.4l415,724.1c4.9,8.5,2,19.5-6.4,24.5L1350,1204.5
					C1347.2,1206.2,1344.1,1207.1,1340.9,1207.1z M1430,159.2c-1.1,0-2.2,0.3-3.2,0.9L929.6,446.2c-3.1,1.8-4.2,5.7-2.5,8.8
					l408,737.1c0.9,1.6,2.3,2.7,4,3.1c1.7,0.5,3.5,0.2,5-0.7l504.1-299.2c3-1.8,4.1-5.8,2.3-8.9l-415-724.1c-0.9-1.5-2.3-2.6-4-3.1
					C1431.1,159.3,1430.5,159.2,1430,159.2z"/>
			</g>
			<g>
				<g id="_x36_vYOTM.tif_1_">
					<g>
						<path class="st8" d="M1114.6,743.4c7.1-16.1,14.4-32.1,21.2-48.3c2.7-6.4,4.5-12.6-5.4-15.9c-6.2-2-6.1-18.4-0.3-21.4
							c1.3-0.7,4.4,0.3,5.7,1.5c4.9,4.4,9.6,9.1,13.9,14.1c1.3,1.5,1.9,4.9,1.1,6.7c-3.8,8.8-7.9,17.5-12.5,25.8
							c-7.3,13.2-15.1,26.1-22.8,39.1C1115.2,744.4,1114.9,743.9,1114.6,743.4z"/>
						<path class="st8" d="M1435,830.2c-9.1,11.6-16.4,21.4-24.3,30.8c-13.7,16.4-29.6,30.2-49.2,39.4
							c-30.7,14.4-60.7,4.6-76.1-25.7c-6.2-12.2-10.3-25.4-15.9-39.5c-1.7,3.8-2.9,6.6-4.2,9.4c-2.7,6.2-4.7,12.8-8,18.6
							c-9.2,15.7-25.1,18.2-38.6,6.1c-12.8-11.4-20.3-26.4-23.1-42.7c-2.9-17.1-7.1-30.5-24.5-39.7c-8.7-4.6-15.3-18.6-17.2-29.3
							c-3.5-20.7-3-42-4.1-63.1c-0.1-1,0.7-2.1,2.9-3.2c0.5,3.2,1,6.3,1.3,9.5c2,19.8,3.5,39.8,6.2,59.5c1.4,9.9,6.1,19.4,17.3,21
							c11.1,1.5,18-7.1,21.3-15.6c13.2-33.6,25.1-67.6,38.1-103.2c-14.3-2-26.1-3.7-37.9-5.2c-17.5-2.2-35.1-3.9-52.5-6.4
							c-12.2-1.7-19.9-9.4-21.3-21.5c-0.7-5.9,0.5-13.1,3.3-18.3c6.6-12.1,14.8-23.3,22.3-34.9c1.7-2.7,3.3-5.4,5.6-9.1
							c-10.8-2.4-19.5-6.7-19.8-18.5c-0.1-3.9,0.1-8.9,2.3-11.6c27.2-32,54.7-63.7,82.2-95.4c0.9-1,2.3-1.5,3.5-2.3
							c0.7,0.4,1.3,0.9,2,1.3c-1.9,3.1-3.3,6.6-5.6,9.3c-23.1,27.8-46.3,55.6-69.4,83.3c-0.6,0.7-1.1,1.4-1.7,2
							c-10.7,13.7-10.3,14.4,3.9,23.9c5.4,3.6,8,1.8,11.7-2.1c28.2-29.5,56.5-59.1,85-88.2c8-8.2,17-15.4,25.8-22.7
							c4-3.3,8.6-6.3,13.4-8.4c13.6-6.2,27.6,0.6,30.2,15.2c1.4,7.9,1.9,16.7,0,24.4c-7.1,28.5-15.3,56.7-24,84.8
							c-3.2-16.8-1.6-33.2,3.7-49.1c4.3-12.8,9.5-25.3,13.8-38.2c4.4-13.1-1-20-14.4-16.4c-9.3,2.5-18.7,7.5-26.1,13.7
							c-50.5,42.5-92.9,92.3-131.3,145.7c-2.6,3.7-4.2,8.1-7.2,13.8c5.9,0.5,9.8,1.1,13.8,1.2c32,1.1,64,2.2,96.1,3
							c3.5,0.1,8.1-0.5,10.4-2.7c7.4-7.1,14.2-14.9,20.4-23.1c1.2-1.7-0.6-7-2.5-9.5c-13-16.3-26.9-32-39.6-48.5
							c-5-6.5-7.7-14.7-11.5-22.1c0.8-0.7,1.6-1.3,2.4-2c11.9,7.1,23.8,14.2,35.7,21.3c-0.2,0.8-0.5,1.5-0.7,2.3
							c-2.8,0.5-5.7,0.9-8.6,1.4c3,17,28,38.9,44.9,39.8c5.3,0.3,10.8-0.5,15.8,0.8c4.4,1.2,9.5,3.9,12,7.5c5.7,8.2,3.7,11-6.1,13
							c-15.5,3.1-29.3,9.4-39.5,21.6c0.1,1.2,0.3,2.4,0.4,3.7c37.6,3.9,75.2,7.8,115.4,12c-2.5-5.9-3.6-9.4-5.4-12.4
							c-19.4-31.9-39-63.7-58.3-95.7c-5-8.2-10.3-16.6-8.3-28.3c15.1,11.7,30.3,22.1,42.5,35.9c-0.4,0.8-0.9,1.5-1.3,2.3
							c-4.1-0.9-8.2-1.9-13.6-3.1c1.1,2.6,1.7,4.6,2.8,6.3c17.6,27.9,35,55.8,52.9,83.4c10.4,16,29,18.8,44.6,7.4
							c15.6-11.4,17.3-18.5,6.6-34.6c-29.4-44-59.3-87.7-89-131.6c-12.7-18.8-25.6-37.4-37.9-56.4c-4-6.2-6.5-13.5-8.2-21.5
							c17,7.7,31.7,17.9,44.3,30.9c-0.4,0.8-0.7,1.6-1.1,2.4c-5-1.6-10-3.2-17.4-5.5c9,13.2,16.7,24.4,24.3,35.7
							c29.1,43.5,58.3,87,87.1,130.7c4.8,7.3,8.5,15.5,11.6,23.7c8.3,22,1.4,38.5-20.2,48.4c-6.6,3-13.7,5-21.8,7.9
							c24.8,35.1,48.8,70.2,58.5,112.4c-0.7,0.4-1.3,0.9-2,1.3c-1.6-2.1-3.2-4.1-4.7-6.2c-1.5-2.2-2.8-4.5-4.1-6.8
							c-19.8-32.3-39.7-64.6-59.4-97.1c-3.5-5.8-7.7-8.6-14.6-9.5c-32.4-4.2-64.7-9-97-13.6c-3.7-0.5-7.5-0.8-12.1,0.5
							c3,2,6,3.9,8.8,6c7.7,5.8,16.4,10.7,22.8,17.8c17.4,19.1,17.5,40.6,1.3,60.6c-4.4,5.5-9.9,10.1-14.3,15.6
							c-9,11.2-18.7,22-26.2,34.2c-17.8,28.8-8.3,68,20.4,86.8c14.4,9.5,30.1,8.6,44.9,2.3c12.5-5.4,25.1-12.1,35.5-20.7
							c22.7-18.9,38.9-43.1,51-70c7.1-15.9,6.2-19-6.5-30.6c-12.4-11.3-25.5-21.8-37.3-33.7c-5.9-5.9-9.5-14-14.2-21.2
							c0.8-0.8,1.7-1.7,2.5-2.5c11.5,4.4,23,8.8,36.4,13.9c-4.7,2.7-7.1,4-10.6,6c2.2,2.6,3.9,5.1,6.1,7.2c5.3,5,11,9.8,16.3,14.8
							c17.4,16.5,23.6,36,15.7,59.3c-5.9,17.2-4,33.6,5.4,49.2c4.1,6.8,8.9,12.7,17.7,12.8c9.3,0,13.5-7,16.1-14.1
							c4.6-12.7,9.6-25.5,11.6-38.7c4.9-31.4,16.9-59.2,37.4-83.4c2.8-3.4,5-7.3,8-10.6c5.3-5.9,5-11.6,1.6-18.5
							c-4.6-9.5-9.9-19.1-11.9-29.3c-1.7-8.4-0.4-18,2-26.4c2.2-7.6,8.7-9,15.8-4.9c11.3,6.6,19.8,15.5,22.4,29.1
							c2.7,14.3,3.4,28.5-3,42c14.3,5.9,21,4.8,28.7-3.9c13.3-15,15.3-22.3,7.2-35c-32.4-51.2-65.2-102.1-98-153.1
							c-18.6-28.9-37.7-57.6-56.1-86.7c-4.5-7.1-7.2-15.5-10.7-23.3c1.1-0.8,2.2-1.6,3.3-2.5c13.1,10.3,26.2,20.6,39.3,30.8
							c-0.5,1-1,2-1.5,3c-4.2-1-8.5-2-14.8-3.4c10.6,16.2,20.4,30.9,30.1,45.7c35.4,54.4,74.6,106.6,104,164.8
							c6.7,13.2,11.8,27.5,15.5,41.8c2.8,11-0.3,22.2-6.7,32c-9.7,14.8-23.7,17.8-37.5,6.8c-7.3-5.8-11.6-4.3-16.8,1.9
							c-24.3,28.8-43,60.2-48.3,98.4c-1.4,10.4-4.2,20.9-8,30.6c-6.1,15.5-20.9,20.1-35.6,12.1c-10.6-5.7-17.3-14.8-21.4-26
							C1439.1,840.9,1437.3,836.4,1435,830.2z M1254.5,664.5c-2.1,4.7-4.3,8.6-5.7,12.7c-8.1,23.3-15.7,46.8-24.1,70
							c-6.1,17-10.5,35.1-24.6,48.1c-1.5,1.4-2.5,4.2-2.5,6.4c0.6,20.7,5.5,40.1,18.3,56.9c5.2,6.8,12.1,8,18.4,2.4
							c5.5-4.9,10.6-11.2,13.6-17.9c5.7-12.9,10-26.3,14.4-39.7c6.2-19,15.7-36,29.2-50.8c7.9-8.7,16.3-17,23.9-25.8
							c4.8-5.5,9.1-11.5,12.8-17.8c3.8-6.2,2.3-11.7-4.2-15.7C1302.8,679.7,1280.2,669.6,1254.5,664.5z M1540.4,683.2
							c2.3,2.7,6.2,8,10.8,12.3c1.6,1.5,6.5,1.9,7.8,0.7c9.6-9.5,8.5-24-2-32.2c-4.7-3.7-9.9-7-15.8-2.2
							C1535.4,666.6,1534.7,673.9,1540.4,683.2z"/>
						<path class="st8" d="M1378.5,397.6c13.2,10.2,26.4,20.3,39.5,30.5c-0.4,0.6-0.7,1.2-1.1,1.8c-3.9-0.2-7.7-0.4-14.2-0.8
							c22.9,34.3,44.6,66.8,66.5,99.7c8.1-8.8,7.9-11.7,0.3-15.9c-10-5.5-10.6-13.5-1.8-22.5c11.1,6.3,16.7,20,12.7,31.5
							c-3.2,9.1-2.4,17.5,1.9,26.4c6.7,14,12.5,28.5,18.5,42.8c1,2.3,1.2,5-0.2,8.5c-9.9-15.2-19.8-30.3-30.5-46.8
							c-5.5,7.1-9.8,12.8-14.1,18.4c-0.6-0.3-1.1-0.6-1.7-1c2.6-5.6,5-11.3,7.7-16.9c2.9-5.8,2.3-10.7-1.4-16.4
							c-26.1-40.1-52-80.4-77.7-120.8c-3.2-5-5-10.8-7.4-16.2C1376.6,399.2,1377.6,398.4,1378.5,397.6z"/>
						<path class="st8" d="M1498.7,430.5c16.4,8.2,29.2,19.7,41.7,31.4c-0.5,1.3-1.1,2.6-1.6,3.8c-3.9-2.4-7.7-4.8-11.6-7.2
							c-0.6,1.1-1.3,2.2-1.9,3.3c8.3,13,16.6,26,24.8,39c21.8,34.5,44.3,68.6,65.1,103.7c7,11.8,10,26.1,14.6,39.4
							c0.6,1.7,0.2,3.8,0.3,6.3C1621.5,641.8,1498.8,437.8,1498.7,430.5z"/>
						<path class="st8" d="M1518.1,612.5c9-19.2,10.8-20.7,19.8-16.7c7.7,3.4,8.1,6.7,2.5,20.5c-6.2-0.5-12.5-1.1-19.5-1.6
							c-1.9,6.1-3.8,12.2-5.9,18.9c-5.9-1.9-11.4-3.6-17.4-5.4c1-6.5,1.9-12.5,2.9-19.2C1507,610.2,1512.6,611.4,1518.1,612.5z"/>
						<path class="st8" d="M1338.7,775.2c1.5-4.4,2.8-8.7,4.4-13c6.1-17.2,12.2-34.3,18.3-51.5c2.5-7,1.5-12.4-5.3-17.5
							c-3.7-2.8-6.3-9.1-6.4-14c-0.2-6.1,5.2-7.3,9.8-2.9c4.6,4.3,9.5,8.3,13.7,13c1.1,1.3,0.5,4.9-0.3,7c-1.6,4.1-5,7.6-5.8,11.8
							c-5.2,24.1-14.9,46.2-25.8,68C1340.3,775.8,1339.5,775.5,1338.7,775.2z"/>
						<path class="st8" d="M1339.7,841.9c0.4,0.4,0.9,0.6,0.9,0.7c-0.5,5.1-1.1,10.2-1.6,15.4c-4.8-2.6-11.2-4-14-8
							c-4.6-6.6-7-14.8-10.2-22.3c-1.1-2.6-2.2-5.2-4-9.4c-4.9,7-8.8,12.5-12.7,18.1c-0.9-0.5-1.8-1.1-2.7-1.6
							c6.6-20.5,19.4-37.8,30.1-56.2c1.1,0.4,2.1,0.8,3.2,1.3c-2,5.5-3.2,11.5-6.2,16.4c-8.3,13.3-6.7,26.5,0.1,39.3
							c2.9,5.4,7.9,9.7,12.9,15.7C1337.4,846.7,1338.5,844.3,1339.7,841.9z"/>
						<path class="st8" d="M1521.1,695.7c-10.3,11.5-20.6,23.1-31,34.6c-0.6-0.3-1.2-0.6-1.8-0.9c0.6-3.6,1.2-7.2,1.6-9.4
							c-3.8-4.3-10-8.4-9.6-11.6c1.2-8.6,4.9-17,8.5-25.1c0.6-1.4,5.4-1.1,8.3-1.5c-1.2,2.6-2.2,5.2-3.6,7.6c-0.5,0.9-2.4,1-2.9,1.9
							c-1.9,3.9-3.5,7.9-5.3,11.9c4,0.1,8.6,1.3,12-0.1c7.1-3,13.6-7.4,20.4-11.2C1518.8,693.3,1519.9,694.5,1521.1,695.7z"/>
						<path class="st8" d="M1590.6,769.1c-16.2-1.7-17.2-0.6-14.7,13.2c1.4,7.7,3,15.3,4.9,25.1c-4.9-3.3-7.9-6.1-11.5-7.5
							c-5.8-2.3-12-3.7-18-5.3c-1.9-0.5-4.6,0.1-5.9-1.1c-2.8-2.6-5-5.9-7.4-8.9c3.3-0.8,7-2.8,9.9-2c8.6,2.3,17,5.7,26.5,9
							c-0.4-2.4-0.9-4.7-1.2-7.1c-0.8-6.3-2.1-12.7-2.2-19c-0.1-3.1,2.1-6.2,3.2-9.3c3.4,1.3,7.2,2.1,10.1,4.1
							C1586.5,761.9,1587.8,765.1,1590.6,769.1z"/>
						<path class="st8" d="M1226.7,619.2c-3.4-2-6.6-4.8-10.3-5.9c-6.1-1.9-12.6-2.3-18.7-4c-3.4-1-6.7-2.9-9.5-5.1
							c-1-0.8-1.1-5.1-0.5-5.3c2.8-1.2,6.1-2.5,8.8-1.9c7.1,1.5,13.9,3.9,22.5,6.5c-2.6-9.4-5.2-16.8-6.5-24.4
							c-0.6-3.6,1.1-10.8,2.2-10.9c5.8-0.5,9.5,3.1,10.3,9.9c-2.9,0.3-5.4,0.5-9.6,1c4.7,13.2,9.3,26,13.9,38.8
							C1228.4,618.2,1227.6,618.7,1226.7,619.2z"/>
						<path class="st8" d="M1376.7,796.8c-1.3,4.8-1.3,10.9-4.3,14.1c-3.4,3.7-19.1-0.8-20.4-5c-1.5-5.2-3.5-11.2,2.9-14.8
							C1360.3,788.2,1372.3,791.6,1376.7,796.8z"/>
						<path class="st8" d="M1277.6,428.9c1.8-3.4,3.6-6.8,5.4-10.2c-0.6-0.7-1.3-1.4-1.9-2.1c-5.4,3.4-10.9,6.8-16.3,10.2
							c0.1-10,10.3-20.7,19.9-20.7c5.1,0,8.5,2.5,6,7.6c-2.9,6-7.1,11.4-10.8,17.1C1279.2,430.1,1278.4,429.5,1277.6,428.9z"/>
						<path class="st8" d="M1383.6,750.4c6.7,12.1,5.1,26.6,20,31.1c1.2-2.9,2.2-5.1,3.3-7.6c2.9,6,5.5,12.9-1.4,16.3
							c-6.3,3.2-10.7-2.7-13.9-7.8C1386,773.2,1382.9,763.4,1383.6,750.4z"/>
						<path class="st8" d="M1409.6,579.9c1.9,7.3,3.6,14.6,5.7,21.9c2.1,7.2,5.5,12.7,16.6,7.9c-0.8,4.1-1.7,8.2-2.5,12.3
							c-3.5-1.2-8.5-1.5-10.3-4c-3.9-5.4-6.9-11.8-8.8-18.2c-1.9-6.3-1.9-13.1-2.7-19.7C1408.2,580,1408.9,580,1409.6,579.9z"/>
						<path class="st8" d="M1181.4,679.2c2.9,8.3,5.1,16.8,8.7,24.7c3.4,7.5,6.1,7.4,11.9,1.2c0.8,0.2,1.7,0.3,2.5,0.5
							c-1,4.5-2,8.9-3,13.4c-4.9-2.5-12.5-3.9-14.1-7.7c-4.2-10-5.8-21.1-8.5-31.7C1179.7,679.3,1180.6,679.3,1181.4,679.2z"/>
						<path class="st8" d="M1576.4,495.3c6.1,12.2,1.4,29.2,17.7,37.4c1.3-2.3,2.4-4.1,4.2-7.3c0.7,5,1.5,8.5,1.4,11.9
							c0,2.1-1.2,5.7-2.3,5.9c-2.2,0.3-5.6-0.6-6.8-2.2C1580.8,527.5,1575.8,512.3,1576.4,495.3z"/>
						<path class="st8" d="M1509.7,645c-5.1,8.4-9.1,15-13.1,21.6c-0.8-0.4-1.7-0.8-2.5-1.2c1.3-2.5,2.5-5,3.8-7.6
							c-0.6-0.6-1.2-1.1-1.8-1.7c-4.6,2.1-9.3,4.1-14.3,6.4C1483,652.4,1493.8,645.1,1509.7,645z"/>
						<path class="st8" d="M1344.2,596.2c1.7,7.3,2.8,14.9,5.4,22c1.9,5.1,5.5,11.1,11.7,2.6c0.7,1.6,1.5,2.5,1.3,3.1
							c-1.2,3.9-2.5,7.7-3.8,11.5c-3.4-2.4-8.2-4.1-9.9-7.4C1343.5,618.1,1341.5,607.3,1344.2,596.2z"/>
						<path class="st8" d="M1268.5,488.9c1.6,10.8,3.3,21.7,5.2,34.6c4.5-3.5,6.3-5,9.4-7.4c0,4.7,0.5,8.4-0.4,11.7
							c-0.3,1.3-4,2.6-5.9,2.4c-2-0.3-4.5-2-5.5-3.9C1265,514.4,1265.3,501.8,1268.5,488.9z"/>
						<path class="st8" d="M1346.1,487.4c5.7,7.2,2.8,22.1,20.7,19.6c-1.3,5.2-2.3,9-3.3,12.8c-3.6-1.9-9-3-10.4-6
							c-4-8.1-6.3-17-9.3-25.6C1344.5,487.9,1345.3,487.7,1346.1,487.4z"/>
						<path class="st8" d="M1168,808.4c-3.7,0.6-5.9,1-8.6,1.5c-1.7-5.7-1.4-10.9,4.6-11.9c2-0.3,6.9,5.3,7.2,8.5
							c1,9.6,0.4,19.4,0.4,29.1c-0.9,0-1.7,0-2.6,0C1168.7,826.9,1168.4,818.1,1168,808.4z"/>
						<path class="st8" d="M1409.4,481.3c-1.4,3.5-2.9,7.1-4.3,10.6c-3.5-2.1-8.5-3.4-10.1-6.4c-3.4-6.5-5-14-5.6-21.8
							c3.7,6.5,7.4,13.1,11.4,20.2c2.5-1.4,4.4-2.5,6.3-3.6C1407.9,480.6,1408.7,480.9,1409.4,481.3z"/>
						<path class="st8" d="M1277.3,904c-7.3-6.2,0.7-20.5-16.1-20c0.8-2.7,1.2-5.6,2.6-7.7c1.1-1.6,3.8-3.3,5.6-3.1
							c1.7,0.2,4.1,2.7,4.4,4.4C1275.3,886.4,1276.2,895.2,1277.3,904z"/>
						<path class="st8" d="M1106.8,577.2c5.4,7.7-0.4,22.6,17.3,25.3c-0.5,2.2-1.3,5.5-2.2,9.2C1110,606.4,1103.8,590,1106.8,577.2z
							"/>
						<path class="st8" d="M1524.1,824.4c0.1-2.9-0.3-5.1,0.2-7c0.5-1.8,2.1-4.6,3.1-4.6c1.9,0,4.6,1.3,5.6,3
							c5.3,8.1,5,16.8,1.5,27.8c-0.8-8.2-1.5-14.4-2.1-21.1C1528.9,823.3,1526.7,823.8,1524.1,824.4z"/>
						<path class="st8" d="M1107.5,681.3c2.3,2.4,4.6,4.9,7.3,7.7c1.5-1.5,3-2.9,4.5-4.3c0.7,0.2,1.3,0.5,2,0.7
							c-1.4,4.4-2.9,8.8-4.3,13.3c-0.8,0-1.6,0.1-2.4,0.1c-3-5.4-6.1-10.8-9.1-16.2C1106.2,682.2,1106.9,681.7,1107.5,681.3z"/>
						<path class="st8" d="M1297.1,725.8c-7.5-1-14.4-1.8-22.2-2.8c-1.5,6.4-3,12.6-4.6,19.4c-7.4-0.9-14.6-1.8-21.6-2.7
							c-3.9-17-1-19.4,22.8-19.3c2-5.9,3.1-12.5,6.5-17.2c1.4-1.9,8.4-0.3,12.6,0.6C1299.2,705.7,1300.5,710.3,1297.1,725.8z"/>
						<path class="st8" d="M1226.9,770.8c4.6,9.7-1,24.8,15.7,28.5c1-1.8,2.1-3.8,3.4-6.1c2.7,6.4,3.9,13.4-2.1,16
							c-6.8,3-9.4-4.6-11.3-9.4c-3.6-9.3-6-19-8.9-28.5C1224.8,771.2,1225.8,771,1226.9,770.8z"/>
					</g>
				</g>
				<g id="_x36_vYOTM.tif">
					<g>
						<path class="st10" d="M1117.8,749c7.1-16.1,14.4-32.1,21.2-48.3c2.7-6.4,4.5-12.6-5.4-15.9c-6.2-2-6.1-18.4-0.3-21.4
							c1.3-0.7,4.4,0.3,5.7,1.5c4.9,4.4,9.6,9.1,13.9,14.1c1.3,1.5,1.9,4.9,1.1,6.7c-3.8,8.8-7.9,17.5-12.5,25.8
							c-7.3,13.2-15.1,26.1-22.8,39.1C1118.4,750,1118.1,749.5,1117.8,749z"/>
						<path class="st10" d="M1438.1,835.7c-9.1,11.6-16.4,21.4-24.3,30.8c-13.7,16.4-29.6,30.2-49.2,39.4
							c-30.7,14.4-60.7,4.6-76.1-25.7c-6.2-12.2-10.3-25.4-15.9-39.5c-1.7,3.8-2.9,6.6-4.2,9.4c-2.7,6.2-4.7,12.8-8,18.6
							c-9.2,15.7-25.1,18.2-38.6,6.1c-12.8-11.4-20.3-26.4-23.1-42.7c-2.9-17.1-7.1-30.5-24.5-39.7c-8.7-4.6-15.3-18.6-17.2-29.3
							c-3.5-20.7-3-42-4.1-63.1c-0.1-1,0.7-2.1,2.9-3.2c0.5,3.2,1,6.3,1.3,9.5c2,19.8,3.5,39.8,6.2,59.5c1.4,9.9,6.1,19.4,17.3,21
							c11.1,1.5,18-7.1,21.3-15.6c13.2-33.6,25.1-67.6,38.1-103.2c-14.3-2-26.1-3.7-37.9-5.2c-17.5-2.2-35.1-3.9-52.5-6.4
							c-12.2-1.7-19.9-9.4-21.3-21.5c-0.7-5.9,0.5-13.1,3.3-18.3c6.6-12.1,14.8-23.3,22.3-34.9c1.7-2.7,3.3-5.4,5.6-9.1
							c-10.8-2.4-19.5-6.7-19.8-18.5c-0.1-3.9,0.1-8.9,2.3-11.6c27.2-32,54.7-63.7,82.2-95.4c0.9-1,2.3-1.5,3.5-2.3
							c0.7,0.4,1.3,0.9,2,1.3c-1.9,3.1-3.3,6.6-5.6,9.3c-23.1,27.8-46.3,55.6-69.4,83.3c-0.6,0.7-1.1,1.4-1.7,2
							c-10.7,13.7-10.3,14.4,3.9,23.9c5.4,3.6,8,1.8,11.7-2.1c28.2-29.5,56.5-59.1,85-88.2c8-8.2,17-15.4,25.8-22.7
							c4-3.3,8.6-6.3,13.4-8.4c13.6-6.2,27.6,0.6,30.2,15.2c1.4,7.9,1.9,16.7,0,24.4c-7.1,28.5-15.3,56.7-24,84.8
							c-3.2-16.8-1.6-33.2,3.7-49.1c4.3-12.8,9.5-25.3,13.8-38.2c4.4-13.1-1-20-14.4-16.4c-9.3,2.5-18.7,7.5-26.1,13.7
							c-50.5,42.5-92.9,92.3-131.3,145.7c-2.6,3.7-4.2,8.1-7.2,13.8c5.9,0.5,9.8,1.1,13.8,1.2c32,1.1,64,2.2,96.1,3
							c3.5,0.1,8.1-0.5,10.4-2.7c7.4-7.1,14.2-14.9,20.4-23.1c1.2-1.7-0.6-7-2.5-9.5c-13-16.3-26.9-32-39.6-48.5
							c-5-6.5-7.7-14.7-11.5-22.1c0.8-0.7,1.6-1.3,2.4-2c11.9,7.1,23.8,14.2,35.7,21.3c-0.2,0.8-0.5,1.5-0.7,2.3
							c-2.8,0.5-5.7,0.9-8.6,1.4c3,17,28,38.9,44.9,39.8c5.3,0.3,10.8-0.5,15.8,0.8c4.4,1.2,9.5,3.9,12,7.5c5.7,8.2,3.7,11-6.1,13
							c-15.5,3.1-29.3,9.4-39.5,21.6c0.1,1.2,0.3,2.4,0.4,3.7c37.6,3.9,75.2,7.8,115.4,12c-2.5-5.9-3.6-9.4-5.4-12.4
							c-19.4-31.9-39-63.7-58.3-95.7c-5-8.2-10.3-16.6-8.3-28.3c15.1,11.7,30.3,22.1,42.5,35.9c-0.4,0.8-0.9,1.5-1.3,2.3
							c-4.1-0.9-8.2-1.9-13.6-3.1c1.1,2.6,1.7,4.6,2.8,6.3c17.6,27.9,35,55.8,52.9,83.4c10.4,16,29,18.8,44.6,7.4
							c15.6-11.4,17.3-18.5,6.6-34.6c-29.4-44-59.3-87.7-89-131.6c-12.7-18.8-25.6-37.4-37.9-56.4c-4-6.2-6.5-13.5-8.2-21.5
							c17,7.7,31.7,17.9,44.3,30.9c-0.4,0.8-0.7,1.6-1.1,2.4c-5-1.6-10-3.2-17.4-5.5c9,13.2,16.7,24.4,24.3,35.7
							c29.1,43.5,58.3,87,87.1,130.7c4.8,7.3,8.5,15.5,11.6,23.7c8.3,22,1.4,38.5-20.2,48.4c-6.6,3-13.7,5-21.8,7.9
							c24.8,35.1,48.8,70.2,58.5,112.4c-0.7,0.4-1.3,0.9-2,1.3c-1.6-2.1-3.2-4.1-4.7-6.2c-1.5-2.2-2.8-4.5-4.1-6.8
							c-19.8-32.3-39.7-64.6-59.4-97.1c-3.5-5.8-7.7-8.6-14.6-9.5c-32.4-4.2-64.7-9-97-13.6c-3.7-0.5-7.5-0.8-12.1,0.5
							c3,2,6,3.9,8.8,6c7.7,5.8,16.4,10.7,22.8,17.8c17.4,19.1,17.5,40.6,1.3,60.6c-4.4,5.5-9.9,10.1-14.3,15.6
							c-9,11.2-18.7,22-26.2,34.2c-17.8,28.8-8.3,68,20.4,86.8c14.4,9.5,30.1,8.6,44.9,2.3c12.5-5.4,25.1-12.1,35.5-20.7
							c22.7-18.9,38.9-43.1,51-70c7.1-15.9,6.2-19-6.5-30.6c-12.4-11.3-25.5-21.8-37.3-33.7c-5.9-5.9-9.5-14-14.2-21.2
							c0.8-0.8,1.7-1.7,2.5-2.5c11.5,4.4,23,8.8,36.4,13.9c-4.7,2.7-7.1,4-10.6,6c2.2,2.6,3.9,5.1,6.1,7.2c5.3,5,11,9.8,16.3,14.8
							c17.4,16.5,23.6,36,15.7,59.3c-5.9,17.2-4,33.6,5.4,49.2c4.1,6.8,8.9,12.7,17.7,12.8c9.3,0,13.5-7,16.1-14.1
							c4.6-12.7,9.6-25.5,11.6-38.7c4.9-31.4,16.9-59.2,37.4-83.4c2.8-3.4,5-7.3,8-10.6c5.3-5.9,5-11.6,1.6-18.5
							c-4.6-9.5-9.9-19.1-11.9-29.3c-1.7-8.4-0.4-18,2-26.4c2.2-7.6,8.7-9,15.8-4.9c11.3,6.6,19.8,15.5,22.4,29.1
							c2.7,14.3,3.4,28.5-3,42c14.3,5.9,21,4.8,28.7-3.9c13.3-15,15.3-22.3,7.2-35c-32.4-51.2-65.2-102.1-98-153.1
							c-18.6-28.9-37.7-57.6-56.1-86.7c-4.5-7.1-7.2-15.5-10.7-23.3c1.1-0.8,2.2-1.6,3.3-2.5c13.1,10.3,26.2,20.6,39.3,30.8
							c-0.5,1-1,2-1.5,3c-4.2-1-8.5-2-14.8-3.4c10.6,16.2,20.4,30.9,30.1,45.7c35.4,54.4,74.6,106.6,104,164.8
							c6.7,13.2,11.8,27.5,15.5,41.8c2.8,11-0.3,22.2-6.7,32c-9.7,14.8-23.7,17.8-37.5,6.8c-7.3-5.8-11.6-4.3-16.8,1.9
							c-24.3,28.8-43,60.2-48.3,98.4c-1.4,10.4-4.2,20.9-8,30.6c-6.1,15.5-20.9,20.1-35.6,12.1c-10.6-5.7-17.3-14.8-21.4-26
							C1442.3,846.4,1440.5,841.9,1438.1,835.7z M1257.6,670c-2.1,4.7-4.3,8.6-5.7,12.7c-8.1,23.3-15.7,46.8-24.1,70
							c-6.1,17-10.5,35.1-24.6,48.1c-1.5,1.4-2.5,4.2-2.5,6.4c0.6,20.7,5.5,40.1,18.3,56.9c5.2,6.8,12.1,8,18.4,2.4
							c5.5-4.9,10.6-11.2,13.6-17.9c5.7-12.9,10-26.3,14.4-39.7c6.2-19,15.7-36,29.2-50.8c7.9-8.7,16.3-17,23.9-25.8
							c4.8-5.5,9.1-11.5,12.8-17.8c3.8-6.2,2.3-11.7-4.2-15.7C1305.9,685.3,1283.3,675.2,1257.6,670z M1543.5,688.8
							c2.3,2.7,6.2,8,10.8,12.3c1.6,1.5,6.5,1.9,7.8,0.7c9.6-9.5,8.5-24-2-32.2c-4.7-3.7-9.9-7-15.8-2.2
							C1538.5,672.2,1537.8,679.5,1543.5,688.8z"/>
						<path class="st10" d="M1381.6,403.2c13.2,10.2,26.4,20.3,39.5,30.5c-0.4,0.6-0.7,1.2-1.1,1.8c-3.9-0.2-7.7-0.4-14.2-0.8
							c22.9,34.3,44.6,66.8,66.5,99.7c8.1-8.8,7.9-11.7,0.3-15.9c-10-5.5-10.6-13.5-1.8-22.5c11.1,6.3,16.7,20,12.7,31.5
							c-3.2,9.1-2.4,17.5,1.9,26.4c6.7,14,12.5,28.5,18.5,42.8c1,2.3,1.2,5-0.2,8.5c-9.9-15.2-19.8-30.3-30.5-46.8
							c-5.5,7.1-9.8,12.8-14.1,18.4c-0.6-0.3-1.1-0.6-1.7-1c2.6-5.6,5-11.3,7.7-16.9c2.9-5.8,2.3-10.7-1.4-16.4
							c-26.1-40.1-52-80.4-77.7-120.8c-3.2-5-5-10.8-7.4-16.2C1379.8,404.8,1380.7,404,1381.6,403.2z"/>
						<path class="st10" d="M1501.8,436c16.4,8.2,29.2,19.7,41.7,31.4c-0.5,1.3-1.1,2.6-1.6,3.8c-3.9-2.4-7.7-4.8-11.6-7.2
							c-0.6,1.1-1.3,2.2-1.9,3.3c8.3,13,16.6,26,24.8,39c21.8,34.5,44.3,68.6,65.1,103.7c7,11.8,10,26.1,14.6,39.4
							c0.6,1.7,0.2,3.8,0.3,6.3C1624.6,647.4,1501.9,443.4,1501.8,436z"/>
						<path class="st10" d="M1521.2,618.1c9-19.2,10.8-20.7,19.8-16.7c7.7,3.4,8.1,6.7,2.5,20.5c-6.2-0.5-12.5-1.1-19.5-1.6
							c-1.9,6.1-3.8,12.2-5.9,18.9c-5.9-1.9-11.4-3.6-17.4-5.4c1-6.5,1.9-12.5,2.9-19.2C1510.1,615.8,1515.7,616.9,1521.2,618.1z"/>
						<path class="st10" d="M1341.8,780.8c1.5-4.4,2.8-8.7,4.4-13c6.1-17.2,12.2-34.3,18.3-51.5c2.5-7,1.5-12.4-5.3-17.5
							c-3.7-2.8-6.3-9.1-6.4-14c-0.2-6.1,5.2-7.3,9.8-2.9c4.6,4.3,9.5,8.3,13.7,13c1.1,1.3,0.5,4.9-0.3,7c-1.6,4.1-5,7.6-5.8,11.8
							c-5.2,24.1-14.9,46.2-25.8,68C1343.4,781.3,1342.6,781.1,1341.8,780.8z"/>
						<path class="st10" d="M1342.9,847.4c0.4,0.4,0.9,0.6,0.9,0.7c-0.5,5.1-1.1,10.2-1.6,15.4c-4.8-2.6-11.2-4-14-8
							c-4.6-6.6-7-14.8-10.2-22.3c-1.1-2.6-2.2-5.2-4-9.4c-4.9,7-8.8,12.5-12.7,18.1c-0.9-0.5-1.8-1.1-2.7-1.6
							c6.6-20.5,19.4-37.8,30.1-56.2c1.1,0.4,2.1,0.8,3.2,1.3c-2,5.5-3.2,11.5-6.2,16.4c-8.3,13.3-6.7,26.5,0.1,39.3
							c2.9,5.4,7.9,9.7,12.9,15.7C1340.5,852.2,1341.7,849.9,1342.9,847.4z"/>
						<path class="st10" d="M1524.2,701.3c-10.3,11.5-20.6,23.1-31,34.6c-0.6-0.3-1.2-0.6-1.8-0.9c0.6-3.6,1.2-7.2,1.6-9.4
							c-3.8-4.3-10-8.4-9.6-11.6c1.2-8.6,4.9-17,8.5-25.1c0.6-1.4,5.4-1.1,8.3-1.5c-1.2,2.6-2.2,5.2-3.6,7.6c-0.5,0.9-2.4,1-2.9,1.9
							c-1.9,3.9-3.5,7.9-5.3,11.9c4,0.1,8.6,1.3,12-0.1c7.1-3,13.6-7.4,20.4-11.2C1522,698.9,1523.1,700.1,1524.2,701.3z"/>
						<path class="st10" d="M1593.7,774.7c-16.2-1.7-17.2-0.6-14.7,13.2c1.4,7.7,3,15.3,4.9,25.1c-4.9-3.3-7.9-6.1-11.5-7.5
							c-5.8-2.3-12-3.7-18-5.3c-1.9-0.5-4.6,0.1-5.9-1.1c-2.8-2.6-5-5.9-7.4-8.9c3.3-0.8,7-2.8,9.9-2c8.6,2.3,17,5.7,26.5,9
							c-0.4-2.4-0.9-4.7-1.2-7.1c-0.8-6.3-2.1-12.7-2.2-19c-0.1-3.1,2.1-6.2,3.2-9.3c3.4,1.3,7.2,2.1,10.1,4.1
							C1589.6,767.5,1590.9,770.7,1593.7,774.7z"/>
						<path class="st10" d="M1229.9,624.8c-3.4-2-6.6-4.8-10.3-5.9c-6.1-1.9-12.6-2.3-18.7-4c-3.4-1-6.7-2.9-9.5-5.1
							c-1-0.8-1.1-5.1-0.5-5.3c2.8-1.2,6.1-2.5,8.8-1.9c7.1,1.5,13.9,3.9,22.5,6.5c-2.6-9.4-5.2-16.8-6.5-24.4
							c-0.6-3.6,1.1-10.8,2.2-10.9c5.8-0.5,9.5,3.1,10.3,9.9c-2.9,0.3-5.4,0.5-9.6,1c4.7,13.2,9.3,26,13.9,38.8
							C1231.5,623.8,1230.7,624.3,1229.9,624.8z"/>
						<path class="st10" d="M1379.8,802.4c-1.3,4.8-1.3,10.9-4.3,14.1c-3.4,3.7-19.1-0.8-20.4-5c-1.5-5.2-3.5-11.2,2.9-14.8
							C1363.4,793.7,1375.5,797.2,1379.8,802.4z"/>
						<path class="st10" d="M1280.7,434.4c1.8-3.4,3.6-6.8,5.4-10.2c-0.6-0.7-1.3-1.4-1.9-2.1c-5.4,3.4-10.9,6.8-16.3,10.2
							c0.1-10,10.3-20.7,19.9-20.7c5.1,0,8.5,2.5,6,7.6c-2.9,6-7.1,11.4-10.8,17.1C1282.3,435.7,1281.5,435.1,1280.7,434.4z"/>
						<path class="st10" d="M1386.7,756c6.7,12.1,5.1,26.6,20,31.1c1.2-2.9,2.2-5.1,3.3-7.6c2.9,6,5.5,12.9-1.4,16.3
							c-6.3,3.2-10.7-2.7-13.9-7.8C1389.2,778.8,1386,769,1386.7,756z"/>
						<path class="st10" d="M1412.7,585.5c1.9,7.3,3.6,14.6,5.7,21.9c2.1,7.2,5.5,12.7,16.6,7.9c-0.8,4.1-1.7,8.2-2.5,12.3
							c-3.5-1.2-8.5-1.5-10.3-4c-3.9-5.4-6.9-11.8-8.8-18.2c-1.9-6.3-1.9-13.1-2.7-19.7C1411.4,585.5,1412,585.5,1412.7,585.5z"/>
						<path class="st10" d="M1184.5,684.7c2.9,8.3,5.1,16.8,8.7,24.7c3.4,7.5,6.1,7.4,11.9,1.2c0.8,0.2,1.7,0.3,2.5,0.5
							c-1,4.5-2,8.9-3,13.4c-4.9-2.5-12.5-3.9-14.1-7.7c-4.2-10-5.8-21.1-8.5-31.7C1182.9,684.9,1183.7,684.8,1184.5,684.7z"/>
						<path class="st10" d="M1579.5,500.9c6.1,12.2,1.4,29.2,17.7,37.4c1.3-2.3,2.4-4.1,4.2-7.3c0.7,5,1.5,8.5,1.4,11.9
							c0,2.1-1.2,5.7-2.3,5.9c-2.2,0.3-5.6-0.6-6.8-2.2C1584,533,1578.9,517.8,1579.5,500.9z"/>
						<path class="st10" d="M1512.9,650.6c-5.1,8.4-9.1,15-13.1,21.6c-0.8-0.4-1.7-0.8-2.5-1.2c1.3-2.5,2.5-5,3.8-7.6
							c-0.6-0.6-1.2-1.1-1.8-1.7c-4.6,2.1-9.3,4.1-14.3,6.4C1486.2,658,1496.9,650.7,1512.9,650.6z"/>
						<path class="st10" d="M1347.4,601.8c1.7,7.3,2.8,14.9,5.4,22c1.9,5.1,5.5,11.1,11.7,2.6c0.7,1.6,1.5,2.5,1.3,3.1
							c-1.2,3.9-2.5,7.7-3.8,11.5c-3.4-2.4-8.2-4.1-9.9-7.4C1346.6,623.7,1344.7,612.8,1347.4,601.8z"/>
						<path class="st10" d="M1271.6,494.5c1.6,10.8,3.3,21.7,5.2,34.6c4.5-3.5,6.3-5,9.4-7.4c0,4.7,0.5,8.4-0.4,11.7
							c-0.3,1.3-4,2.6-5.9,2.4c-2-0.3-4.5-2-5.5-3.9C1268.1,520,1268.4,507.3,1271.6,494.5z"/>
						<path class="st10" d="M1349.2,493c5.7,7.2,2.8,22.1,20.7,19.6c-1.3,5.2-2.3,9-3.3,12.8c-3.6-1.9-9-3-10.4-6
							c-4-8.1-6.3-17-9.3-25.6C1347.6,493.5,1348.4,493.2,1349.2,493z"/>
						<path class="st10" d="M1171.1,814c-3.7,0.6-5.9,1-8.6,1.5c-1.7-5.7-1.4-10.9,4.6-11.9c2-0.3,6.9,5.3,7.2,8.5
							c1,9.6,0.4,19.4,0.4,29.1c-0.9,0-1.7,0-2.6,0C1171.8,832.5,1171.5,823.7,1171.1,814z"/>
						<path class="st10" d="M1412.6,486.8c-1.4,3.5-2.9,7.1-4.3,10.6c-3.5-2.1-8.5-3.4-10.1-6.4c-3.4-6.5-5-14-5.6-21.8
							c3.7,6.5,7.4,13.1,11.4,20.2c2.5-1.4,4.4-2.5,6.3-3.6C1411.1,486.2,1411.8,486.5,1412.6,486.8z"/>
						<path class="st10" d="M1280.5,909.6c-7.3-6.2,0.7-20.5-16.1-20c0.8-2.7,1.2-5.6,2.6-7.7c1.1-1.6,3.8-3.3,5.6-3.1
							c1.7,0.2,4.1,2.7,4.4,4.4C1278.5,892,1279.4,900.8,1280.5,909.6z"/>
						<path class="st10" d="M1109.9,582.8c5.4,7.7-0.4,22.6,17.3,25.3c-0.5,2.2-1.3,5.5-2.2,9.2
							C1113.2,612,1106.9,595.6,1109.9,582.8z"/>
						<path class="st10" d="M1527.2,830c0.1-2.9-0.3-5.1,0.2-7c0.5-1.8,2.1-4.6,3.1-4.6c1.9,0,4.6,1.3,5.6,3
							c5.3,8.1,5,16.8,1.5,27.8c-0.8-8.2-1.5-14.4-2.1-21.1C1532,828.9,1529.8,829.4,1527.2,830z"/>
						<path class="st10" d="M1110.7,686.9c2.3,2.4,4.6,4.9,7.3,7.7c1.5-1.5,3-2.9,4.5-4.3c0.7,0.2,1.3,0.5,2,0.7
							c-1.4,4.4-2.9,8.8-4.3,13.3c-0.8,0-1.6,0.1-2.4,0.1c-3-5.4-6.1-10.8-9.1-16.2C1109.3,687.7,1110,687.3,1110.7,686.9z"/>
						<path class="st10" d="M1300.2,731.3c-7.5-1-14.4-1.8-22.2-2.8c-1.5,6.4-3,12.6-4.6,19.4c-7.4-0.9-14.6-1.8-21.6-2.7
							c-3.9-17-1-19.4,22.8-19.3c2-5.9,3.1-12.4,6.5-17.2c1.4-1.9,8.4-0.3,12.6,0.6C1302.3,711.3,1303.6,715.8,1300.2,731.3z"/>
						<path class="st10" d="M1230.1,776.4c4.6,9.7-1,24.8,15.7,28.5c1-1.8,2.1-3.8,3.4-6.1c2.7,6.4,3.9,13.4-2.1,16
							c-6.8,3-9.4-4.6-11.3-9.4c-3.6-9.3-6-19-8.9-28.5C1227.9,776.7,1229,776.6,1230.1,776.4z"/>
					</g>
				</g>
			</g>
		</g>
	</g>
</g>
</svg>
